# Blender 5.0.1
# www.blender.org
mtllib Untitled.mtl
o Cube
v 0.323372 0.323372 -0.323372
v 0.323372 -0.323372 -0.323372
v 0.323372 0.323372 0.323372
v 0.323372 -0.323372 0.323372
v -0.323372 0.323372 -0.323372
v -0.323372 -0.323372 -0.323372
v -0.323372 0.323372 0.323372
v -0.323372 -0.323372 0.323372
v 0.323372 1.939192 0.323372
v -0.323372 1.939192 0.323372
v 0.323372 1.939192 -0.323372
v -0.323372 1.939192 -0.323372
v -0.323372 -2.239103 -0.323372
v -0.323372 -2.239103 0.323372
v 0.323372 -2.239103 -0.323372
v 0.323372 -2.239103 0.323372
v 0.209087 -0.323372 -0.323372
v 0.209087 0.323372 0.323372
v 0.209087 -0.323372 0.323372
v 0.209087 0.323372 -0.323372
v 0.209087 1.939192 0.323372
v 0.209087 1.939192 -0.323372
v 0.209087 -2.239103 -0.323372
v 0.209087 -2.239103 0.323372
v -0.186650 -0.323372 -0.323372
v -0.186650 0.323372 0.323372
v -0.186650 1.939192 0.323372
v -0.186650 -2.239103 -0.323372
v -0.186650 -0.323372 0.323372
v -0.186650 0.323372 -0.323372
v -0.186650 1.939192 -0.323372
v -0.186650 -2.239103 0.323372
v -0.186650 2.071760 -0.323372
v 0.209087 2.071760 -0.323372
v 0.209087 2.071760 0.323372
v -0.186650 2.071760 0.323372
v 0.323372 0.096526 -0.323372
v -0.323372 0.096526 0.323372
v 0.323372 0.096526 0.323372
v -0.323372 0.096526 -0.323372
v 0.209087 0.096526 -0.323372
v 0.209087 0.096526 0.323372
v -0.186650 0.096526 -0.323372
v -0.186650 0.096526 0.323372
v 0.323372 -0.113423 -0.323372
v 0.323372 -0.113423 0.323372
v -0.323372 -0.113423 -0.323372
v 0.209087 -0.113423 -0.323372
v 0.209087 -0.113423 0.323372
v -0.186650 -0.113423 -0.323372
v -0.186650 -0.113423 0.323372
v -0.323372 -0.113423 0.323372
v 0.724927 -0.113423 -0.323372
v 0.724927 -0.323372 -0.323372
v 0.724927 -0.113423 0.323372
v 0.724927 -0.323372 0.323372
v 0.724927 0.096526 -0.323372
v 0.724927 0.096526 0.323372
v 0.857958 0.096526 -0.323372
v 0.857958 0.096526 0.323372
v 0.857958 -0.113423 -0.323372
v 0.857958 -0.113423 0.323372
v 0.724927 -0.141437 -0.323372
v 0.724927 -0.141437 0.323372
v 0.857958 -0.141437 -0.323372
v 0.857958 -0.141437 0.323372
v -0.323372 -0.026429 0.323372
v 0.323372 -0.026429 -0.323372
v 0.323372 -0.026429 0.323372
v -0.323372 -0.026429 -0.323372
v 0.209087 -0.026429 -0.323372
v 0.209087 -0.026429 0.323372
v -0.186650 -0.026429 -0.323372
v -0.186650 -0.026429 0.323372
v 0.724927 -0.026429 -0.323372
v 0.724927 -0.026429 0.323372
v 0.857958 -0.026429 -0.323372
v 0.857958 -0.026429 0.323372
v 0.988599 0.096526 -0.323372
v 0.988599 0.096526 0.323372
v 0.988599 -0.026429 -0.323372
v 0.988599 -0.026429 0.323372
v 0.597960 -0.323372 -0.323372
v 0.597960 -0.323372 0.323372
v 0.597960 0.096526 -0.323372
v 0.597960 -0.113423 -0.323372
v 0.597960 -0.113423 0.323372
v 0.597960 0.096526 0.323372
v 0.597960 -0.026429 0.323372
v 0.597960 -0.026429 -0.323372
v 0.724927 1.422914 -0.323372
v 0.724927 1.422914 0.323372
v 0.597960 1.422914 -0.323372
v 0.857958 1.422914 -0.323372
v 0.857958 1.422914 0.323372
v 0.988599 1.422914 -0.323372
v 0.988599 1.422914 0.323372
v 0.597960 1.422914 0.323372
v 0.724927 1.542974 -0.323372
v 0.724927 1.542974 0.323372
v 0.857958 1.542974 -0.323372
v 0.857958 1.542974 0.323372
v 0.323372 -0.429251 -0.323372
v -0.323372 -0.429251 -0.323372
v -0.323372 -0.429251 0.323372
v 0.323372 -0.429251 0.323372
v 0.209087 -0.429251 0.323372
v 0.209087 -0.429251 -0.323372
v -0.186650 -0.429251 -0.323372
v -0.186650 -0.429251 0.323372
v 0.323372 -0.827201 -0.323372
v -0.323372 -0.827201 0.323372
v 0.209087 -0.827201 0.323372
v 0.209087 -0.827201 -0.323372
v -0.186650 -0.827201 -0.323372
v -0.186650 -0.827201 0.323372
v -0.323372 -0.827201 -0.323372
v 0.323372 -0.827201 0.323372
v -0.696572 -0.827201 -0.323372
v -0.696572 -0.429251 -0.323372
v -0.696572 -0.429251 0.323372
v -0.696572 -0.827201 0.323372
v -0.323372 -0.684344 -0.323372
v 0.323372 -0.684344 0.323372
v 0.323372 -0.684344 -0.323372
v -0.323372 -0.684344 0.323372
v 0.209087 -0.684344 0.323372
v 0.209087 -0.684344 -0.323372
v -0.186650 -0.684344 -0.323372
v -0.186650 -0.684344 0.323372
v -0.696572 -0.684344 -0.323372
v -0.696572 -0.684344 0.323372
v -0.828334 -0.684344 -0.323372
v -0.828334 -0.429251 -0.323372
v -0.828334 -0.429251 0.323372
v -0.828334 -0.684344 0.323372
v -0.323372 -0.538746 -0.323372
v 0.323372 -0.538746 0.323372
v -0.696572 -0.538746 -0.323372
v 0.323372 -0.538746 -0.323372
v -0.323372 -0.538746 0.323372
v 0.209087 -0.538746 0.323372
v 0.209087 -0.538746 -0.323372
v -0.186650 -0.538746 -0.323372
v -0.186650 -0.538746 0.323372
v -0.696572 -0.538746 0.323372
v -0.828334 -0.538746 -0.323372
v -0.828334 -0.538746 0.323372
v -0.963079 -0.538746 -0.323372
v -0.963079 -0.429251 -0.323372
v -0.963079 -0.429251 0.323372
v -0.963079 -0.538746 0.323372
v -0.570110 -0.827201 0.323372
v -0.570110 -0.827201 -0.323372
v -0.570110 -0.429251 -0.323372
v -0.570110 -0.429251 0.323372
v -0.570110 -0.684344 0.323372
v -0.570110 -0.684344 -0.323372
v -0.570110 -0.538746 -0.323372
v -0.570110 -0.538746 0.323372
v -0.696572 0.888398 -0.323372
v -0.696572 0.888398 0.323372
v -0.570110 0.888398 0.323372
v -0.828334 0.888398 -0.323372
v -0.828334 0.888398 0.323372
v -0.963079 0.888398 -0.323372
v -0.963079 0.888398 0.323372
v -0.570110 0.888398 -0.323372
v -0.696572 1.015454 -0.323372
v -0.696572 1.015454 0.323372
v -0.828334 1.015454 -0.323372
v -0.828334 1.015454 0.323372
vn 1.0000 -0.0000 -0.0000
vn -0.0000 -0.0000 1.0000
vn -1.0000 -0.0000 -0.0000
vn -0.0000 -0.0000 -1.0000
vn -0.0000 1.0000 -0.0000
vn -0.0000 -1.0000 -0.0000
vt 0.625000 0.750000
vt 0.625000 0.500000
vt 0.537312 0.947150
vt 0.625000 0.947150
vt 0.625000 1.000000
vt 0.537312 1.000000
vt 0.537312 0.000000
vt 0.625000 0.000000
vt 0.625000 0.250000
vt 0.537312 0.250000
vt 0.375000 0.455823
vt 0.375000 0.500000
vt 0.375000 0.500000
vt 0.375000 0.455823
vt 0.537312 0.500000
vt 0.537312 0.750000
vt 0.537312 0.455823
vt 0.625000 0.455823
vt 0.822150 0.500000
vt 0.875000 0.500000
vt 0.875000 0.750000
vt 0.822150 0.750000
vt 0.625000 0.302850
vt 0.625000 0.794177
vt 0.330823 0.500000
vt 0.375000 0.750000
vt 0.330823 0.750000
vt 0.375000 0.947150
vt 0.375000 1.000000
vt 0.375000 0.947150
vt 0.375000 0.000000
vt 0.375000 0.250000
vt 0.375000 0.794177
vt 0.177850 0.500000
vt 0.177850 0.750000
vt 0.669177 0.500000
vt 0.669177 0.750000
vt 0.537312 0.302850
vt 0.375000 0.302850
vt 0.537312 0.794177
vt 0.125000 0.500000
vt 0.125000 0.750000
vt 0.489784 0.794177
vt 0.489784 0.947150
vt 0.489784 0.250000
vt 0.489784 0.302850
vt 0.489784 0.750000
vt 0.489784 0.455823
vt 0.489784 0.500000
vt 0.489784 0.000000
vt 0.489784 1.000000
vt 0.375000 0.947150
vt 0.456156 0.947150
vt 0.456156 1.000000
vt 0.456156 0.000000
vt 0.456156 0.250000
vt 0.375000 0.500000
vt 0.456156 0.455823
vt 0.456156 0.500000
vt 0.456156 0.302850
vt 0.456156 0.750000
vt 0.456156 0.794177
vt 0.375000 0.794177
vt 0.375000 0.455823
vt 0.375000 0.750000
vt 0.375000 0.250000
vt 0.375000 0.750000
s 0
usemtl Material
f 3/1/1 1/2/1 11/2/1 9/1/1
f 44/3/2 26/4/2 7/5/2 38/6/2
f 38/7/3 7/8/3 5/9/3 40/10/3
f 114/11/4 111/12/4 15/13/4 23/14/4
f 37/15/1 1/2/1 3/1/1 39/16/1
f 41/17/4 20/18/4 1/2/4 37/15/4
f 31/19/5 12/20/5 10/21/5 27/22/5
f 30/23/4 5/9/4 12/9/4 31/23/4
f 18/24/2 3/1/2 9/1/2 21/24/2
f 5/9/3 7/8/3 10/8/3 12/9/3
f 23/25/6 15/13/6 16/26/6 24/27/6
f 116/28/2 112/29/2 14/29/2 32/30/2
f 112/31/3 117/32/3 13/32/3 14/31/3
f 111/12/1 118/26/1 16/26/1 15/13/1
f 118/26/2 113/33/2 24/33/2 16/26/2
f 28/34/6 23/25/6 24/27/6 32/35/6
f 26/4/2 18/24/2 21/24/2 27/4/2
f 1/2/4 20/18/4 22/18/4 11/2/4
f 11/2/5 22/36/5 21/37/5 9/1/5
f 43/38/4 30/23/4 20/18/4 41/17/4
f 115/39/4 114/11/4 23/14/4 28/39/4
f 39/16/2 3/1/2 18/24/2 42/40/2
f 117/32/4 115/39/4 28/39/4 13/32/4
f 40/10/4 5/9/4 30/23/4 43/38/4
f 7/5/2 26/4/2 27/4/2 10/5/2
f 13/41/6 28/34/6 32/35/6 14/42/6
f 113/33/2 116/28/2 32/30/2 24/33/2
f 20/18/4 30/23/4 31/23/4 22/18/4
f 22/18/4 31/23/4 33/23/4 34/18/4
f 42/40/2 18/24/2 26/4/2 44/3/2
f 34/36/5 33/19/5 36/22/5 35/37/5
f 21/37/1 22/36/1 34/36/1 35/37/1
f 31/19/3 27/22/3 36/22/3 33/19/3
f 27/4/2 21/24/2 35/24/2 36/4/2
f 72/43/2 42/40/2 44/3/2 74/44/2
f 70/45/4 40/10/4 43/38/4 73/46/4
f 69/47/2 39/16/2 42/40/2 72/43/2
f 73/46/4 43/38/4 41/17/4 71/48/4
f 71/48/4 41/17/4 37/15/4 68/49/4
f 90/49/4 85/15/4 57/15/4 75/49/4
f 67/50/3 38/7/3 40/10/3 70/45/3
f 74/44/2 44/3/2 38/6/2 67/51/2
f 29/52/2 51/53/2 52/54/2 8/29/2
f 8/31/3 52/55/3 47/56/3 6/32/3
f 84/26/6 83/57/6 54/13/6 56/26/6
f 17/14/4 48/58/4 45/59/4 2/13/4
f 25/39/4 50/60/4 48/58/4 17/14/4
f 4/26/2 46/61/2 49/62/2 19/63/2
f 6/32/4 47/56/4 50/60/4 25/39/4
f 19/63/2 49/62/2 51/53/2 29/52/2
f 55/61/3 53/59/3 63/59/3 64/61/3
f 54/13/1 53/59/1 55/61/1 56/26/1
f 89/47/2 87/61/2 55/61/2 76/47/2
f 87/61/2 84/26/2 56/26/2 55/61/2
f 85/15/3 88/16/3 98/16/3 93/15/3
f 83/57/4 86/59/4 53/59/4 54/13/4
f 78/47/6 77/49/6 81/49/6 82/47/6
f 75/49/4 57/15/4 59/15/4 77/49/4
f 76/47/2 55/61/2 62/61/2 78/47/2
f 59/15/4 57/15/4 91/15/4 94/15/4
f 64/61/6 63/59/6 65/59/6 66/61/6
f 62/61/2 55/61/2 64/61/2 66/61/2
f 61/59/1 62/61/1 66/61/1 65/59/1
f 53/59/4 61/59/4 65/59/4 63/59/4
f 58/16/2 76/47/2 78/47/2 60/16/2
f 53/59/4 75/49/4 77/49/4 61/59/4
f 61/59/1 77/49/1 78/47/1 62/61/1
f 88/16/2 89/47/2 76/47/2 58/16/2
f 51/53/2 74/44/2 67/51/2 52/54/2
f 52/55/3 67/50/3 70/45/3 47/56/3
f 86/59/4 90/49/4 75/49/4 53/59/4
f 48/58/4 71/48/4 68/49/4 45/59/4
f 50/60/4 73/46/4 71/48/4 48/58/4
f 46/61/2 69/47/2 72/43/2 49/62/2
f 47/56/4 70/45/4 73/46/4 50/60/4
f 49/62/2 72/43/2 74/44/2 51/53/2
f 81/49/1 79/15/1 80/16/1 82/47/1
f 77/49/4 59/15/4 79/15/4 81/49/4
f 60/16/2 80/16/2 97/16/2 95/16/2
f 60/16/2 78/47/2 82/47/2 80/16/2
f 45/59/4 68/49/4 90/49/4 86/59/4
f 39/16/2 69/47/2 89/47/2 88/16/2
f 2/13/4 45/59/4 86/59/4 83/57/4
f 37/15/5 39/16/5 88/16/5 85/15/5
f 46/61/2 4/26/2 84/26/2 87/61/2
f 69/47/2 46/61/2 87/61/2 89/47/2
f 4/26/6 2/13/6 83/57/6 84/26/6
f 68/49/4 37/15/4 85/15/4 90/49/4
f 93/15/5 98/16/5 92/16/5 91/15/5
f 94/15/4 91/15/4 99/15/4 101/15/4
f 94/15/5 95/16/5 97/16/5 96/15/5
f 79/15/4 59/15/4 94/15/4 96/15/4
f 88/16/2 58/16/2 92/16/2 98/16/2
f 57/15/4 85/15/4 93/15/4 91/15/4
f 58/16/2 60/16/2 95/16/2 92/16/2
f 80/16/1 79/15/1 96/15/1 97/16/1
f 99/15/5 100/16/5 102/16/5 101/15/5
f 92/16/2 95/16/2 102/16/2 100/16/2
f 95/16/1 94/15/1 101/15/1 102/16/1
f 91/15/3 92/16/3 100/16/3 99/15/3
f 19/63/2 29/52/2 110/28/2 107/63/2
f 6/32/4 25/39/4 109/39/4 104/32/4
f 25/39/4 17/14/4 108/64/4 109/39/4
f 4/26/2 19/63/2 107/63/2 106/26/2
f 2/13/1 4/26/1 106/26/1 103/13/1
f 8/31/3 6/32/3 104/32/3 105/31/3
f 29/52/2 8/29/2 105/29/2 110/28/2
f 17/14/4 2/13/4 103/13/4 108/64/4
f 127/63/2 130/28/2 116/28/2 113/33/2
f 123/32/4 129/39/4 115/39/4 117/32/4
f 129/39/4 128/11/4 114/11/4 115/39/4
f 124/65/2 127/63/2 113/33/2 118/26/2
f 125/13/1 124/65/1 118/26/1 111/12/1
f 154/32/6 153/31/6 122/31/6 119/32/6
f 130/28/2 126/29/2 112/29/2 116/28/2
f 128/11/4 125/13/4 111/12/4 114/11/4
f 132/31/3 131/66/3 119/32/3 122/31/3
f 158/32/4 154/32/4 119/32/4 131/66/4
f 160/29/2 156/29/2 121/29/2 146/29/2
f 135/29/2 121/29/2 162/29/2 165/29/2
f 153/29/2 157/29/2 132/29/2 122/29/2
f 159/32/4 158/32/4 131/66/4 139/32/4
f 146/29/2 121/29/2 135/29/2 148/29/2
f 143/11/4 140/13/4 125/13/4 128/11/4
f 145/28/2 141/29/2 126/29/2 130/28/2
f 140/13/1 138/67/1 124/65/1 125/13/1
f 138/67/2 142/63/2 127/63/2 124/65/2
f 144/39/4 143/11/4 128/11/4 129/39/4
f 137/32/4 144/39/4 129/39/4 123/32/4
f 142/63/2 145/28/2 130/28/2 127/63/2
f 148/31/3 147/32/3 133/66/3 136/31/3
f 139/32/4 131/66/4 133/66/4 147/32/4
f 131/66/6 132/31/6 136/31/6 133/66/6
f 151/29/2 135/29/2 165/29/2 167/29/2
f 120/32/4 139/32/4 147/32/4 134/32/4
f 156/31/1 155/32/1 168/32/1 163/31/1
f 107/63/2 110/28/2 145/28/2 142/63/2
f 104/32/4 109/39/4 144/39/4 137/32/4
f 109/39/4 108/64/4 143/11/4 144/39/4
f 106/26/2 107/63/2 142/63/2 138/67/2
f 103/13/1 106/26/1 138/67/1 140/13/1
f 110/28/2 105/29/2 141/29/2 145/28/2
f 108/64/4 103/13/4 140/13/4 143/11/4
f 132/29/2 146/29/2 148/29/2 136/29/2
f 155/32/4 159/32/4 139/32/4 120/32/4
f 157/29/2 160/29/2 146/29/2 132/29/2
f 151/31/3 150/32/3 149/32/3 152/31/3
f 147/32/6 148/31/6 152/31/6 149/32/6
f 148/29/2 135/29/2 151/29/2 152/29/2
f 134/32/4 147/32/4 149/32/4 150/32/4
f 126/29/2 141/29/2 160/29/2 157/29/2
f 104/32/4 137/32/4 159/32/4 155/32/4
f 137/32/4 123/32/4 158/32/4 159/32/4
f 112/29/2 126/29/2 157/29/2 153/29/2
f 105/31/5 104/32/5 155/32/5 156/31/5
f 141/29/2 105/29/2 156/29/2 160/29/2
f 123/32/4 117/32/4 154/32/4 158/32/4
f 117/32/6 112/31/6 153/31/6 154/32/6
f 163/31/5 168/32/5 161/32/5 162/31/5
f 165/29/2 162/29/2 170/29/2 172/29/2
f 165/31/5 164/32/5 166/32/5 167/31/5
f 150/32/3 151/31/3 167/31/3 166/32/3
f 155/32/4 120/32/4 161/32/4 168/32/4
f 120/32/4 134/32/4 164/32/4 161/32/4
f 134/32/4 150/32/4 166/32/4 164/32/4
f 121/29/2 156/29/2 163/29/2 162/29/2
f 170/31/5 169/32/5 171/32/5 172/31/5
f 161/32/4 164/32/4 171/32/4 169/32/4
f 164/32/3 165/31/3 172/31/3 171/32/3
f 162/31/1 161/32/1 169/32/1 170/31/1
