# Blender 5.0.1
# www.blender.org
mtllib pterodactyl1.mtl
o Cylinder
v -0.000000 0.750792 -3.037084
v -0.000000 0.750792 -1.535500
v 0.530890 0.530890 -3.037084
v 0.530890 0.530890 -1.535500
v 0.750792 0.000000 -3.037084
v 0.750792 -0.000000 -1.535500
v 0.530890 -0.530890 -3.037084
v 0.530890 -0.530890 -1.535500
v -0.000000 -0.750792 -3.037084
v -0.000000 -0.750792 -1.535500
v -0.530890 -0.530890 -3.037084
v -0.530890 -0.530890 -1.535500
v -0.750792 0.000000 -3.037084
v -0.750792 -0.000000 -1.535500
v -0.530890 0.530890 -3.037084
v -0.530890 0.530890 -1.535500
v 0.097937 -1.694254 -7.760195
v 0.097937 -1.694254 -7.760195
v 0.097937 -1.694254 -7.760195
v 0.097937 -1.694254 -7.760195
v 0.097937 -1.694254 -7.760195
v 0.097937 -1.694254 -7.760195
v 0.097937 -1.694254 -7.760195
v 0.097937 -1.694254 -7.760195
v 0.883579 1.139886 -0.642707
v -0.000000 1.505877 -0.642707
v 1.249570 0.256307 -0.642707
v 0.883579 -0.627272 -0.642707
v -0.000000 -0.993263 -0.642708
v -0.883579 -0.627272 -0.642707
v -1.249570 0.256307 -0.642707
v -0.883579 1.139886 -0.642707
v 0.883579 1.139886 6.004342
v -0.000000 1.505876 6.004342
v 1.249570 0.256307 6.004342
v 0.883579 -0.627272 6.004342
v -0.000000 -0.993263 6.004342
v -0.883579 -0.627272 6.004342
v -1.249570 0.256307 6.004342
v -0.883579 1.139886 6.004342
v 1.692755 1.949061 7.763105
v 0.000000 2.650223 7.763105
v 2.393917 0.256307 7.763105
v 1.692755 -1.436448 7.763105
v 0.000000 -2.137610 7.763105
v -1.692755 -1.436448 7.763105
v -2.393917 0.256307 7.763105
v -1.692755 1.949061 7.763105
v 1.692755 1.949061 15.398230
v 0.000000 2.650223 15.398230
v 2.393917 0.256306 15.398230
v 1.692755 -1.436448 15.398230
v 0.000000 -2.137610 15.398230
v -1.692754 -1.436448 15.398230
v -2.393916 0.256306 15.398230
v -1.692754 1.949061 15.398230
v 1.086601 1.342907 17.022682
v 0.000000 1.792992 17.022682
v 1.536686 0.256306 17.022682
v 1.086601 -0.830295 17.022682
v 0.000000 -1.280379 17.022682
v -1.086601 -0.830295 17.022682
v -1.536685 0.256306 17.022682
v -1.086601 1.342907 17.022682
v 0.399890 0.656196 20.349407
v 0.000000 0.821835 20.349407
v 0.565530 0.256306 20.349407
v 0.399890 -0.143583 20.349407
v 0.000000 -0.309223 20.349407
v -0.399889 -0.143583 20.349407
v -0.565529 0.256306 20.349407
v -0.399889 0.656196 20.349407
v 0.000003 0.256306 25.572140
v 0.000003 0.256306 25.572140
v 0.000003 0.256306 25.572140
v 0.000003 0.256306 25.572140
v 0.000003 0.256306 25.572140
v 0.000003 0.256306 25.572140
v 0.000003 0.256306 25.572140
v 0.000003 0.256306 25.572140
v -0.000000 -0.993263 2.161569
v -0.883579 -0.627272 2.161569
v 1.249570 0.256307 2.161569
v 0.883579 -0.627272 2.161569
v -0.000000 1.505876 2.161569
v 0.883579 1.139886 2.161569
v -0.883579 1.139886 2.161569
v -1.249570 0.256307 2.161569
v -1.369449 -1.113142 0.681989
v 1.369449 -1.113142 0.681989
v 1.369449 1.625756 0.681989
v -1.936693 0.256307 0.681989
v -0.000000 -1.680386 0.681989
v 1.936693 0.256307 0.681989
v -0.000000 2.193000 0.681989
v -1.369449 1.625756 0.681989
v -2.062622 0.256307 6.881331
v -1.458494 1.714800 6.881331
v 0.000000 -1.806315 6.881331
v -1.458494 -1.202187 6.881331
v 2.062622 0.256307 6.881331
v 1.458494 -1.202187 6.881331
v 0.000000 2.318928 6.881331
v 1.458494 1.714800 6.881331
v 6.334749 2.002501 4.757842
v 5.714089 3.500905 4.757842
v -5.714089 3.500905 4.757843
v -6.334749 2.002501 4.757843
v 6.334750 2.002501 11.516356
v 5.714090 3.500905 11.516356
v -5.714089 3.500905 11.516356
v -6.334749 2.002501 11.516356
v 11.767200 4.361754 5.535108
v 11.223656 5.673984 5.535108
v -11.223656 5.673984 5.535109
v -11.767200 4.361754 5.535109
v 11.767200 4.361754 11.453885
v 11.223657 5.673984 11.453885
v -11.223655 5.673984 11.453886
v -11.767200 4.361754 11.453886
v 16.102215 6.496707 8.866484
v 15.798615 7.229662 8.866484
v -15.798615 7.229665 8.866485
v -16.102215 6.496710 8.866485
v 16.102215 6.496707 12.172461
v 15.798615 7.229662 12.172461
v -15.798614 7.229665 12.172462
v -16.102215 6.496710 12.172462
v 18.915558 7.858022 11.833314
v 18.750546 8.256395 11.833314
v -18.750544 8.256403 11.833315
v -18.915556 7.858029 11.833315
v 18.915558 7.858022 13.630172
v 18.750546 8.256395 13.630172
v -18.750542 8.256403 13.630173
v -18.915556 7.858029 13.630173
v 20.712822 8.835836 14.449151
v 20.712822 8.835836 14.449151
v -20.712818 8.835848 14.449152
v -20.712818 8.835848 14.449152
v 20.712822 8.835836 14.449151
v 20.712822 8.835836 14.449151
v -20.712818 8.835848 14.449152
v -20.712818 8.835848 14.449152
v -0.569022 -0.312716 18.612087
v -0.804719 0.256306 18.612087
v 0.569023 -0.312716 18.612087
v 0.000000 -0.548413 18.612087
v 0.569023 0.825329 18.612087
v 0.804720 0.256306 18.612087
v -0.569022 0.825329 18.612087
v 0.000000 1.061026 18.612087
v 0.269204 0.639284 -3.037084
v 0.269204 0.639284 -1.535500
v 0.097937 -1.694254 -7.760195
v 0.448045 1.320290 -0.642707
v 0.448045 1.320290 6.004342
v 0.858361 2.294678 7.763105
v 0.858362 2.294678 15.398230
v 0.550993 1.564763 17.022682
v 0.202776 0.737843 20.349407
v 0.000003 0.256306 25.572140
v 0.448045 1.320290 2.161569
v 0.694420 1.905362 0.681989
v 0.739572 2.012588 6.881331
v 0.288540 0.941508 18.612087
v -0.249789 0.647326 -3.037084
v -0.249789 0.647326 -1.535500
v 0.097937 -1.694254 -7.760195
v -0.415732 1.333675 -0.642707
v -0.415732 1.333675 6.004342
v -0.796457 2.320320 7.763105
v -0.796456 2.320320 15.398230
v -0.511256 1.581223 17.022682
v -0.188151 0.743900 20.349407
v 0.000003 0.256306 25.572140
v -0.415732 1.333674 2.161569
v -0.644339 1.926106 0.681989
v -0.686235 2.034681 6.881331
v -0.267730 0.950128 18.612087
v -0.000000 3.793577 1.934602
v -0.000000 3.106453 3.414182
v -0.415732 2.934251 3.414182
v -0.644339 3.526683 1.934602
v 0.448045 2.920866 3.414182
v 0.694420 3.505939 1.934603
v 0.003858 5.189570 3.723696
v 0.003858 4.759851 4.649010
v -0.256136 4.652157 4.649010
v -0.399104 5.022658 3.723696
v 0.284061 4.643786 4.649010
v 0.438141 5.009685 3.723696
v 0.006141 5.628337 5.394381
v 0.006141 5.350907 5.991769
v -0.161713 5.281379 5.991769
v -0.254014 5.520577 5.394381
v 0.187041 5.275975 5.991769
v 0.286516 5.512202 5.394381
v 0.010299 5.626622 7.702357
v 0.010299 5.626622 7.702357
v 0.010299 5.626622 7.702357
v 0.010299 5.626622 7.702357
v 0.010299 5.626622 7.702357
v 0.010299 5.626622 7.702357
vn 0.3827 0.9239 -0.0000
vn 0.9239 0.3827 -0.0000
vn 0.9239 -0.3827 -0.0000
vn 0.3827 -0.9239 -0.0000
vn -0.3827 -0.9239 -0.0000
vn -0.9239 -0.3827 -0.0000
vn 0.3712 -0.8961 -0.2434
vn -0.9239 0.3827 -0.0000
vn -0.3827 0.9239 -0.0000
vn -0.3769 -0.9098 0.1739
vn -0.0000 -0.0000 1.0000
vn -0.3442 0.8309 -0.4373
vn 0.3463 0.8360 -0.4256
vn 0.9238 -0.3827 0.0096
vn -0.9235 -0.3825 -0.0287
vn 0.3758 -0.9072 0.1890
vn -0.8841 0.3662 -0.2902
vn 0.8931 0.3699 -0.2561
vn -0.7831 0.3244 -0.5306
vn 0.7831 0.3244 -0.5306
vn -0.3712 -0.8961 -0.2434
vn -0.3015 0.7280 -0.6157
vn 0.3015 0.7280 -0.6157
vn 0.8559 -0.3545 -0.3764
vn -0.8559 -0.3545 -0.3764
vn -0.8728 0.3615 -0.3279
vn -0.3615 -0.8728 -0.3279
vn 0.8728 -0.3615 -0.3279
vn 0.3615 0.8728 -0.3279
vn -0.3615 0.8728 -0.3279
vn -0.8728 -0.3615 -0.3279
vn 0.3615 -0.8728 -0.3279
vn 0.8728 0.3615 -0.3279
vn -0.8304 0.3440 0.4382
vn 0.4051 -0.9143 -0.0000
vn -0.6184 0.2561 0.7430
vn -0.9165 -0.3796 0.1262
vn -0.3440 -0.8304 0.4382
vn 0.8304 -0.3440 0.4382
vn 0.3440 0.8304 0.4382
vn -0.3440 0.8304 0.4382
vn -0.8304 -0.3440 0.4382
vn 0.3440 -0.8304 0.4382
vn 0.8304 0.3440 0.4382
vn 0.3808 0.9193 0.0995
vn 0.3796 -0.9165 0.1262
vn 0.9165 0.3796 0.1262
vn -0.9165 0.3796 0.1262
vn -0.3796 -0.9165 0.1262
vn 0.9165 -0.3796 0.1262
vn 0.3796 0.9165 0.1262
vn -0.3796 0.9165 0.1262
vn -0.3808 0.9193 0.0995
vn -0.9193 -0.3808 0.0995
vn 0.3808 -0.9193 0.0995
vn 0.9193 0.3808 0.0995
vn -0.9193 0.3808 0.0995
vn -0.3808 -0.9193 0.0995
vn 0.9193 -0.3808 0.0995
vn -0.8490 0.3517 0.3943
vn 0.8490 0.3517 0.3943
vn 0.3517 -0.8490 0.3943
vn -0.8490 -0.3517 0.3943
vn -0.3517 0.8490 0.3943
vn 0.2473 -0.5972 0.7630
vn 0.8490 -0.3517 0.3943
vn -0.3517 -0.8490 0.3943
vn -0.3451 -0.8332 -0.4322
vn 0.8332 -0.3451 -0.4322
vn 0.3451 0.8332 -0.4322
vn -0.3451 0.8332 -0.4322
vn -0.8332 -0.3451 -0.4322
vn 0.3451 -0.8332 -0.4322
vn 0.8332 0.3451 -0.4322
vn -0.8332 0.3451 -0.4322
vn 0.7017 0.2906 -0.6505
vn 0.2906 -0.7017 -0.6505
vn -0.7017 -0.2906 -0.6505
vn -0.2906 0.7017 -0.6505
vn 0.2906 0.7017 -0.6505
vn 0.7017 -0.2906 -0.6505
vn -0.2906 -0.7017 -0.6505
vn -0.7017 0.2906 -0.6505
vn 0.0097 0.0040 0.9999
vn -0.3983 -0.9172 -0.0000
vn -0.4051 -0.9143 -0.0000
vn -0.5285 -0.2189 -0.8202
vn 0.3600 0.9329 -0.0000
vn -0.3600 0.9329 -0.0000
vn 0.5285 -0.2189 -0.8202
vn 0.6184 0.2561 0.7430
vn -0.4418 -0.8971 -0.0000
vn 0.4418 -0.8971 -0.0000
vn 0.1202 0.0498 -0.9915
vn 0.3669 0.9303 -0.0000
vn -0.3669 0.9303 -0.0000
vn -0.0097 0.0040 0.9999
vn -0.1202 0.0498 -0.9915
vn 0.3983 -0.9172 -0.0000
vn 0.3911 -0.1620 0.9060
vn -0.3285 0.9445 -0.0000
vn -0.1362 -0.0564 0.9891
vn 0.5251 0.2175 -0.8227
vn 0.3219 0.9468 -0.0000
vn -0.3219 0.9468 -0.0000
vn 0.1362 -0.0564 0.9891
vn -0.5251 0.2175 -0.8227
vn 0.2832 0.9591 -0.0000
vn 0.7293 0.3021 -0.6140
vn -0.6366 0.2637 -0.7247
vn 0.4356 -0.9002 -0.0000
vn -0.4356 -0.9002 -0.0000
vn -0.3911 -0.1620 0.9060
vn 0.6366 0.2637 -0.7247
vn 0.3285 0.9445 -0.0000
vn -0.2832 0.9591 -0.0000
vn 0.3450 -0.1429 0.9277
vn -0.7293 0.3021 -0.6140
vn 0.4779 -0.8784 -0.0000
vn -0.4779 -0.8784 -0.0000
vn -0.3450 -0.1429 0.9277
vn -0.3521 0.8501 0.3915
vn 0.3521 0.8501 0.3915
vn 0.8501 -0.3521 0.3915
vn -0.3521 -0.8501 0.3915
vn -0.8501 0.3521 0.3915
vn 0.8501 0.3521 0.3915
vn 0.3521 -0.8501 0.3915
vn -0.8501 -0.3521 0.3915
vn 0.3517 0.8490 0.3943
vn -0.9890 -0.0911 0.1164
vn 0.2407 -0.5811 0.7774
vn -0.2404 -0.5805 0.7780
vn 0.2473 0.5972 -0.7630
vn -0.2473 -0.5972 0.7630
vn 0.9872 -0.0982 0.1255
vn -0.2473 0.5972 -0.7630
vn 0.9867 -0.1074 0.1218
vn -0.3719 0.8979 -0.2353
vn -0.9890 -0.0139 0.1472
vn 0.3103 0.7492 -0.5852
vn -0.3106 0.7497 -0.5843
vn 0.9874 -0.0186 0.1571
vn -0.9891 -0.0886 0.1173
vn 0.3786 -0.9139 0.1464
vn -0.3544 -0.8556 0.3772
vn 0.3546 -0.8560 0.3762
vn -0.9888 -0.0958 0.1144
vn 0.3718 0.8977 -0.2363
vn -0.3827 0.9239 0.0014
vn 0.9869 -0.1039 0.1233
vn -0.3785 -0.9137 0.1482
vt 0.936615 0.500000
vt 0.936615 1.000000
vt 0.875000 1.000000
vt 0.875000 0.500000
vt 0.750000 1.000000
vt 0.750000 0.500000
vt 0.625000 1.000000
vt 0.625000 0.500000
vt 0.500000 1.000000
vt 0.500000 0.500000
vt 0.375000 1.000000
vt 0.375000 0.500000
vt 0.250000 1.000000
vt 0.250000 0.500000
vt 0.125000 1.000000
vt 0.125000 0.500000
vt 0.058814 0.500000
vt 0.058814 1.000000
vt 0.000000 1.000000
vt 0.000000 0.500000
vt 1.000000 0.500000
vt 0.093929 0.500000
vt 0.968512 0.500000
vt 0.375000 1.000000
vt 1.000000 1.000000
vt 0.936615 1.000000
vt 0.936615 1.000000
vt 0.058814 1.000000
vt 0.936615 1.000000
vt 0.058814 1.000000
vt 0.906250 1.000000
vt 0.500000 1.000000
vt 0.750000 1.000000
vt 0.031250 1.000000
vt 0.125000 1.000000
vt 0.250000 1.000000
vt 0.750000 1.000000
vt 0.875000 1.000000
vt 0.040616 1.000000
vt 1.034368 1.000000
vt 0.953556 1.000000
vt -0.034368 1.000000
s 0
f 153/1/1 154/2/1 4/3/1 3/4/1
f 3/4/2 4/3/2 6/5/2 5/6/2
f 5/6/3 6/5/3 8/7/3 7/8/3
f 7/8/4 8/7/4 10/9/4 9/10/4
f 9/10/5 10/9/5 12/11/5 11/12/5
f 11/12/6 12/11/6 14/13/6 13/14/6
f 10/9/7 8/7/7 28/7/7 29/9/7
f 13/14/8 14/13/8 16/15/8 15/16/8
f 167/17/9 168/18/9 2/19/9 1/20/9
f 9/10/10 11/12/10 22/12/10 21/10/10
f 17/21/11 155/21/11 18/21/11 19/21/11 20/21/11 21/21/11 22/21/11 23/21/11 24/21/11 169/21/11
f 167/17/12 1/20/12 17/20/12 169/22/12
f 153/1/13 3/4/13 18/4/13 155/23/13
f 5/6/14 7/8/14 20/8/14 19/6/14
f 11/12/15 13/14/15 23/14/15 22/12/15
f 7/8/16 9/10/16 21/10/16 20/8/16
f 13/14/17 15/16/17 24/16/17 23/14/17
f 3/4/18 5/6/18 19/6/18 18/4/18
f 82/24/5 81/9/5 37/9/5 38/11/5
f 16/15/19 14/13/19 31/13/19 32/15/19
f 6/5/20 4/3/20 25/3/20 27/5/20
f 12/11/21 10/9/21 29/9/21 30/11/21
f 168/18/22 16/15/22 32/15/22 170/18/22
f 154/2/23 2/25/23 26/25/23 156/26/23
f 8/7/24 6/5/24 27/5/24 28/7/24
f 14/13/25 12/11/25 30/11/25 31/13/25
f 98/15/26 97/13/26 47/13/26 48/15/26
f 84/7/3 83/5/3 35/5/3 36/7/3
f 163/27/1 85/25/1 34/25/1 157/27/1
f 177/28/9 87/15/9 40/15/9 171/28/9
f 88/13/6 82/24/6 38/11/6 39/13/6
f 81/9/4 84/7/4 36/7/4 37/9/4
f 83/5/2 86/3/2 33/3/2 35/5/2
f 87/15/8 88/13/8 39/13/8 40/15/8
f 47/13/6 46/11/6 54/11/6 55/13/6
f 100/11/27 99/9/27 45/9/27 46/11/27
f 102/7/28 101/5/28 43/5/28 44/7/28
f 165/27/29 103/25/29 42/25/29 158/27/29
f 179/28/30 98/15/30 48/15/30 172/28/30
f 97/13/31 100/11/31 46/11/31 47/13/31
f 99/9/32 102/7/32 44/7/32 45/9/32
f 101/5/33 104/3/33 41/3/33 43/5/33
f 56/15/34 55/13/34 63/13/34 64/15/34
f 45/9/4 44/7/4 52/7/4 53/9/4
f 51/5/35 43/5/35 105/5/35 109/5/35
f 55/13/36 56/15/36 111/15/36 112/13/36
f 46/11/5 45/9/5 53/9/5 54/11/5
f 44/7/3 43/5/3 51/5/3 52/7/3
f 158/27/1 42/25/1 50/25/1 159/27/1
f 172/28/9 48/15/9 56/15/9 173/28/9
f 146/13/37 145/24/37 70/11/37 71/13/37
f 54/11/38 53/9/38 61/9/38 62/11/38
f 52/7/39 51/5/39 59/5/39 60/7/39
f 159/27/40 50/25/40 58/25/40 160/29/40
f 173/28/41 56/15/41 64/15/41 174/30/41
f 55/13/42 54/11/42 62/11/42 63/13/42
f 53/9/43 52/7/43 60/7/43 61/9/43
f 51/5/44 49/3/44 57/3/44 59/5/44
f 161/2/45 66/25/45 74/25/45 162/31/45
f 148/32/46 147/7/46 68/7/46 69/9/46
f 150/33/47 149/3/47 65/3/47 67/5/47
f 151/15/48 146/13/48 71/13/48 72/15/48
f 145/24/49 148/32/49 69/9/49 70/11/49
f 147/7/50 150/33/50 67/5/50 68/7/50
f 166/26/51 152/25/51 66/25/51 161/2/51
f 180/30/52 151/15/52 72/15/52 175/28/52
f 73/3/11 162/3/11 74/3/11 176/3/11 80/3/11 79/3/11 78/3/11 77/3/11 76/3/11 75/3/11
f 175/28/53 72/15/53 80/15/53 176/34/53
f 71/13/54 70/11/54 78/11/54 79/13/54
f 69/9/55 68/7/55 76/7/55 77/9/55
f 67/5/56 65/3/56 73/3/56 75/5/56
f 72/15/57 71/13/57 79/13/57 80/15/57
f 70/11/58 69/9/58 77/9/58 78/11/58
f 68/7/59 67/5/59 75/5/59 76/7/59
f 96/35/60 92/36/60 88/13/60 87/15/60
f 94/37/61 91/38/61 86/3/61 83/5/61
f 93/9/62 90/7/62 84/7/62 81/9/62
f 92/36/63 89/11/63 82/24/63 88/13/63
f 178/39/64 96/35/64 87/15/64 177/28/64
f 177/28/65 85/19/65 182/19/65 183/28/65
f 90/7/66 94/37/66 83/5/66 84/7/66
f 89/11/67 93/9/67 81/9/67 82/24/67
f 30/11/68 29/9/68 93/9/68 89/11/68
f 28/7/69 27/5/69 94/37/69 90/7/69
f 156/26/70 26/25/70 95/40/70 164/41/70
f 170/18/71 32/15/71 96/35/71 178/39/71
f 31/13/72 30/11/72 89/11/72 92/36/72
f 29/9/73 28/7/73 90/7/73 93/9/73
f 27/5/74 25/3/74 91/38/74 94/37/74
f 32/15/75 31/13/75 92/36/75 96/35/75
f 35/5/76 33/3/76 104/3/76 101/5/76
f 37/9/77 36/7/77 102/7/77 99/9/77
f 39/13/78 38/11/78 100/11/78 97/13/78
f 171/28/79 40/15/79 98/15/79 179/28/79
f 157/27/80 34/25/80 103/25/80 165/27/80
f 36/7/81 35/5/81 101/5/81 102/7/81
f 38/11/82 37/9/82 99/9/82 100/11/82
f 40/15/83 39/13/83 97/13/83 98/15/83
f 110/3/84 109/5/84 117/5/84 118/3/84
f 108/13/85 112/13/85 120/13/85 116/13/85
f 47/13/86 55/13/86 112/13/86 108/13/86
f 43/5/87 41/3/87 106/3/87 105/5/87
f 56/15/88 48/15/88 107/15/88 111/15/88
f 41/3/89 49/3/89 110/3/89 106/3/89
f 48/15/90 47/13/90 108/13/90 107/15/90
f 49/3/91 51/5/91 109/5/91 110/3/91
f 116/13/92 120/13/92 128/13/92 124/13/92
f 117/5/93 113/5/93 121/5/93 125/5/93
f 105/5/94 106/3/94 114/3/94 113/5/94
f 111/15/95 107/15/95 115/15/95 119/15/95
f 106/3/96 110/3/96 118/3/96 114/3/96
f 112/13/97 111/15/97 119/15/97 120/13/97
f 107/15/98 108/13/98 116/13/98 115/15/98
f 109/5/99 105/5/99 113/5/99 117/5/99
f 128/13/100 127/15/100 135/15/100 136/13/100
f 122/3/101 126/3/101 134/3/101 130/3/101
f 118/3/102 117/5/102 125/5/102 126/3/102
f 113/5/103 114/3/103 122/3/103 121/5/103
f 119/15/104 115/15/104 123/15/104 127/15/104
f 114/3/105 118/3/105 126/3/105 122/3/105
f 120/13/106 119/15/106 127/15/106 128/13/106
f 115/15/107 116/13/107 124/13/107 123/15/107
f 135/15/108 131/15/108 139/15/108 143/15/108
f 129/5/109 130/3/109 138/3/109 137/5/109
f 123/15/110 124/13/110 132/13/110 131/15/110
f 125/5/111 121/5/111 129/5/111 133/5/111
f 124/13/112 128/13/112 136/13/112 132/13/112
f 126/3/113 125/5/113 133/5/113 134/3/113
f 121/5/114 122/3/114 130/3/114 129/5/114
f 127/15/115 123/15/115 131/15/115 135/15/115
f 137/5/11 138/3/11 142/3/11 141/5/11
f 139/15/11 140/13/11 144/13/11 143/15/11
f 130/3/116 134/3/116 142/3/116 138/3/116
f 136/13/117 135/15/117 143/15/117 144/13/117
f 131/15/118 132/13/118 140/13/118 139/15/118
f 133/5/119 129/5/119 137/5/119 141/5/119
f 132/13/120 136/13/120 144/13/120 140/13/120
f 134/3/121 133/5/121 141/5/121 142/3/121
f 174/30/122 64/15/122 151/15/122 180/30/122
f 160/29/123 58/25/123 152/25/123 166/26/123
f 60/7/124 59/5/124 150/33/124 147/7/124
f 62/11/125 61/9/125 148/32/125 145/24/125
f 64/15/126 63/13/126 146/13/126 151/15/126
f 59/5/127 57/3/127 149/3/127 150/33/127
f 61/9/128 60/7/128 147/7/128 148/32/128
f 63/13/129 62/11/129 145/24/129 146/13/129
f 57/3/123 160/29/123 166/26/123 149/3/123
f 33/3/80 157/27/80 165/27/80 104/3/80
f 25/3/70 156/26/70 164/41/70 91/38/70
f 91/38/130 164/41/130 163/27/130 86/3/130
f 149/3/51 166/26/51 161/2/51 65/3/51
f 65/3/45 161/2/45 162/31/45 73/3/45
f 49/3/40 159/27/40 160/29/40 57/3/40
f 41/3/1 158/27/1 159/27/1 49/3/1
f 104/3/29 165/27/29 158/27/29 41/3/29
f 86/3/1 163/27/1 157/27/1 33/3/1
f 4/3/23 154/2/23 156/26/23 25/3/23
f 1/21/13 153/1/13 155/23/13 17/21/13
f 1/21/1 2/25/1 154/2/1 153/1/1
f 58/19/122 174/30/122 180/30/122 152/19/122
f 34/19/79 171/28/79 179/28/79 103/19/79
f 26/19/71 170/18/71 178/39/71 95/42/71
f 178/39/131 177/28/131 183/28/131 184/39/131
f 66/19/53 175/28/53 176/34/53 74/19/53
f 152/19/52 180/30/52 175/28/52 66/19/52
f 50/19/41 173/28/41 174/30/41 58/19/41
f 42/19/9 172/28/9 173/28/9 50/19/9
f 103/19/30 179/28/30 172/28/30 42/19/30
f 85/19/9 177/28/9 171/28/9 34/19/9
f 2/19/22 168/18/22 170/18/22 26/19/22
f 15/16/12 167/17/12 169/22/12 24/16/12
f 15/16/9 16/15/9 168/18/9 167/17/9
f 183/28/132 182/19/132 188/19/132 189/28/132
f 182/25/133 185/27/133 191/27/133 188/25/133
f 164/41/134 95/40/134 181/40/134 186/41/134
f 85/25/135 163/27/135 185/27/135 182/25/135
f 163/27/136 164/41/136 186/41/136 185/27/136
f 95/42/137 178/39/137 184/39/137 181/42/137
f 191/27/138 192/41/138 198/41/138 197/27/138
f 187/42/139 190/39/139 196/39/139 193/42/139
f 184/39/140 183/28/140 189/28/140 190/39/140
f 186/41/141 181/40/141 187/40/141 192/41/141
f 181/42/142 184/39/142 190/39/142 187/42/142
f 185/27/143 186/41/143 192/41/143 191/27/143
f 196/39/144 195/28/144 201/28/144 202/39/144
f 195/28/145 194/19/145 200/19/145 201/28/145
f 188/25/146 191/27/146 197/27/146 194/25/146
f 189/28/147 188/19/147 194/19/147 195/28/147
f 190/39/148 189/28/148 195/28/148 196/39/148
f 192/41/149 187/40/149 193/40/149 198/41/149
f 204/41/11 199/40/11 200/25/11 203/27/11
f 199/42/11 202/39/11 201/28/11 200/19/11
f 198/41/1 193/40/1 199/40/1 204/41/1
f 193/42/150 196/39/150 202/39/150 199/42/150
f 197/27/151 198/41/151 204/41/151 203/27/151
f 194/25/152 197/27/152 203/27/152 200/25/152
