# Blender 5.0.1
# www.blender.org
mtllib pterodactyl2.mtl
o Cylinder
v -0.000000 0.750792 -3.037084
v -0.000000 0.750792 -1.535500
v 0.530890 0.530890 -3.037084
v 0.530890 0.530890 -1.535500
v 0.750792 0.000000 -3.037084
v 0.750792 -0.000000 -1.535500
v 0.530890 -0.530890 -3.037084
v 0.530890 -0.530890 -1.535500
v -0.000000 -0.750792 -3.037084
v -0.000000 -0.750792 -1.535500
v -0.530890 -0.530890 -3.037084
v -0.530890 -0.530890 -1.535500
v -0.750792 0.000000 -3.037084
v -0.750792 -0.000000 -1.535500
v -0.530890 0.530890 -3.037084
v -0.530890 0.530890 -1.535500
v 0.097937 -1.694254 -7.760195
v 0.097937 -1.694254 -7.760195
v 0.097937 -1.694254 -7.760195
v 0.097937 -1.694254 -7.760195
v 0.097937 -1.694254 -7.760195
v 0.097937 -1.694254 -7.760195
v 0.097937 -1.694254 -7.760195
v 0.097937 -1.694254 -7.760195
v 0.883579 1.139886 -0.642707
v -0.000000 1.505877 -0.642707
v 1.249570 0.256307 -0.642707
v 0.883579 -0.627272 -0.642707
v -0.000000 -0.993263 -0.642708
v -0.883579 -0.627272 -0.642707
v -1.249570 0.256307 -0.642707
v -0.883579 1.139886 -0.642707
v 0.883579 1.139886 6.004342
v -0.000000 1.505876 6.004342
v 1.249570 0.256307 6.004342
v 0.883579 -0.627272 6.004342
v -0.000000 -0.993263 6.004342
v -0.883579 -0.627272 6.004342
v -1.249570 0.256307 6.004342
v -0.883579 1.139886 6.004342
v 1.692755 1.949061 7.763105
v 0.000000 2.650223 7.763105
v 2.393917 0.256307 7.763105
v 1.692755 -1.436448 7.763105
v 0.000000 -2.137610 7.763105
v -1.692755 -1.436448 7.763105
v -2.393917 0.256307 7.763105
v -1.692755 1.949061 7.763105
v 1.692755 1.949061 15.398230
v 0.000000 2.650223 15.398230
v 2.393917 0.256306 15.398230
v 1.692755 -1.436448 15.398230
v 0.000000 -2.137610 15.398230
v -1.692754 -1.436448 15.398230
v -2.393916 0.256306 15.398230
v -1.692754 1.949061 15.398230
v 1.086601 1.342907 17.022682
v 0.000000 1.792992 17.022682
v 1.536686 0.256306 17.022682
v 1.086601 -0.830295 17.022682
v 0.000000 -1.280379 17.022682
v -1.086601 -0.830295 17.022682
v -1.536685 0.256306 17.022682
v -1.086601 1.342907 17.022682
v 0.399890 0.656196 20.349407
v 0.000000 0.821835 20.349407
v 0.565530 0.256306 20.349407
v 0.399890 -0.143583 20.349407
v 0.000000 -0.309223 20.349407
v -0.399889 -0.143583 20.349407
v -0.565529 0.256306 20.349407
v -0.399889 0.656196 20.349407
v 0.000003 0.256306 25.572140
v 0.000003 0.256306 25.572140
v 0.000003 0.256306 25.572140
v 0.000003 0.256306 25.572140
v 0.000003 0.256306 25.572140
v 0.000003 0.256306 25.572140
v 0.000003 0.256306 25.572140
v 0.000003 0.256306 25.572140
v -0.000000 -0.993263 2.161569
v -0.883579 -0.627272 2.161569
v 1.249570 0.256307 2.161569
v 0.883579 -0.627272 2.161569
v -0.000000 1.505876 2.161569
v 0.883579 1.139886 2.161569
v -0.883579 1.139886 2.161569
v -1.249570 0.256307 2.161569
v -1.369449 -1.113142 0.681989
v 1.369449 -1.113142 0.681989
v 1.369449 1.625756 0.681989
v -1.936693 0.256307 0.681989
v -0.000000 -1.680386 0.681989
v 1.936693 0.256307 0.681989
v -0.000000 2.193000 0.681989
v -1.369449 1.625756 0.681989
v -2.062622 0.256307 6.881331
v -1.458494 1.714800 6.881331
v 0.000000 -1.806315 6.881331
v -1.458494 -1.202187 6.881331
v 2.062622 0.256307 6.881331
v 1.458494 -1.202187 6.881331
v 0.000000 2.318928 6.881331
v 1.458494 1.714800 6.881331
v 20.712822 8.835836 14.449151
v 20.712822 8.835836 14.449151
v -20.712818 8.835848 14.449152
v -20.712818 8.835848 14.449152
v 20.712822 8.835836 14.449151
v 20.712822 8.835836 14.449151
v -20.712818 8.835848 14.449152
v -20.712818 8.835848 14.449152
v -0.569022 -0.312716 18.612087
v -0.804719 0.256306 18.612087
v 0.569023 -0.312716 18.612087
v 0.000000 -0.548413 18.612087
v 0.569023 0.825329 18.612087
v 0.804720 0.256306 18.612087
v -0.569022 0.825329 18.612087
v 0.000000 1.061026 18.612087
v 0.269204 0.639284 -3.037084
v 0.269204 0.639284 -1.535500
v 0.097937 -1.694254 -7.760195
v 0.448045 1.320290 -0.642707
v 0.448045 1.320290 6.004342
v 0.858361 2.294678 7.763105
v 0.858362 2.294678 15.398230
v 0.550993 1.564763 17.022682
v 0.202776 0.737843 20.349407
v 0.000003 0.256306 25.572140
v 0.448045 1.320290 2.161569
v 0.694420 1.905362 0.681989
v 0.739572 2.012588 6.881331
v 0.288540 0.941508 18.612087
v -0.249789 0.647326 -3.037084
v -0.249789 0.647326 -1.535500
v 0.097937 -1.694254 -7.760195
v -0.415732 1.333675 -0.642707
v -0.415732 1.333675 6.004342
v -0.796457 2.320320 7.763105
v -0.796456 2.320320 15.398230
v -0.511256 1.581223 17.022682
v -0.188151 0.743900 20.349407
v 0.000003 0.256306 25.572140
v -0.415732 1.333674 2.161569
v -0.644339 1.926106 0.681989
v -0.686235 2.034681 6.881331
v -0.267730 0.950128 18.612087
v -0.000000 3.793577 1.934602
v -0.000000 3.106453 3.414182
v -0.415732 2.934251 3.414182
v -0.644339 3.526683 1.934602
v 0.448045 2.920866 3.414182
v 0.694420 3.505939 1.934603
v 0.003858 5.189570 3.723696
v 0.003858 4.759851 4.649010
v -0.256136 4.652157 4.649010
v -0.399104 5.022658 3.723696
v 0.284061 4.643786 4.649010
v 0.438141 5.009685 3.723696
v 0.006141 5.628337 5.394381
v 0.006141 5.350907 5.991769
v -0.161713 5.281379 5.991769
v -0.254014 5.520577 5.394381
v 0.187041 5.275975 5.991769
v 0.286516 5.512202 5.394381
v 0.010299 5.626622 7.702357
v 0.010299 5.626622 7.702357
v 0.010299 5.626622 7.702357
v 0.010299 5.626622 7.702357
v 0.010299 5.626622 7.702357
v 0.010299 5.626622 7.702357
v 6.051847 -3.242043 4.421772
v 6.753009 -1.549289 4.421772
v -6.753009 -1.549289 4.421773
v -6.051847 -3.242043 4.421773
v 6.051847 -3.242044 12.056897
v 6.753009 -1.549289 12.056897
v -6.753008 -1.549289 12.056897
v -6.051847 -3.242044 12.056897
v 11.394911 -5.343254 5.312719
v 12.016907 -3.841624 5.312719
v -12.016907 -3.841624 5.312721
v -11.394911 -5.343255 5.312721
v 11.394912 -5.343255 12.085782
v 12.016907 -3.841625 12.085782
v -12.016907 -3.841625 12.085782
v -11.394911 -5.343255 12.085782
v 15.901416 -6.964253 8.504553
v 16.349705 -5.881987 8.504553
v -16.349705 -5.881987 8.504555
v -15.901415 -6.964253 8.504555
v 15.901417 -6.964253 13.386087
v 16.349705 -5.881987 13.386087
v -16.349705 -5.881987 13.386087
v -15.901415 -6.964253 13.386087
v 19.566374 -8.247607 12.802601
v 19.848692 -7.566030 12.802601
v -19.848690 -7.566034 12.802602
v -19.566370 -8.247612 12.802602
v 19.566374 -8.247607 15.876839
v 19.848692 -7.566030 15.876839
v -19.848690 -7.566034 15.876839
v -19.566370 -8.247612 15.876839
v 23.415901 -9.442873 18.615019
v 23.415901 -9.442873 18.615019
v -23.415894 -9.442887 18.615019
v -23.415894 -9.442887 18.615019
v 23.415901 -9.442873 18.615019
v 23.415901 -9.442873 18.615019
v -23.415894 -9.442887 18.615019
v -23.415894 -9.442887 18.615019
vn 0.3827 0.9239 -0.0000
vn 0.9239 0.3827 -0.0000
vn 0.9239 -0.3827 -0.0000
vn 0.3827 -0.9239 -0.0000
vn -0.3827 -0.9239 -0.0000
vn -0.9239 -0.3827 -0.0000
vn 0.3712 -0.8961 -0.2434
vn -0.9239 0.3827 -0.0000
vn -0.3827 0.9239 -0.0000
vn -0.3769 -0.9098 0.1739
vn -0.0000 -0.0000 1.0000
vn -0.3442 0.8309 -0.4373
vn 0.3463 0.8360 -0.4256
vn 0.9238 -0.3827 0.0096
vn -0.9235 -0.3825 -0.0287
vn 0.3758 -0.9072 0.1890
vn -0.8841 0.3662 -0.2902
vn 0.8931 0.3699 -0.2561
vn -0.7831 0.3244 -0.5306
vn 0.7831 0.3244 -0.5306
vn -0.3712 -0.8961 -0.2434
vn -0.3015 0.7280 -0.6157
vn 0.3015 0.7280 -0.6157
vn 0.8559 -0.3545 -0.3764
vn -0.8559 -0.3545 -0.3764
vn -0.8728 0.3615 -0.3279
vn 0.5339 -0.2212 0.8161
vn -0.3615 -0.8728 -0.3279
vn 0.8728 -0.3615 -0.3279
vn 0.3615 0.8728 -0.3279
vn -0.3615 0.8728 -0.3279
vn -0.8728 -0.3615 -0.3279
vn 0.3615 -0.8728 -0.3279
vn 0.8728 0.3615 -0.3279
vn -0.8304 0.3440 0.4382
vn -0.9165 -0.3796 0.1262
vn -0.3440 -0.8304 0.4382
vn 0.8304 -0.3440 0.4382
vn 0.3440 0.8304 0.4382
vn -0.3440 0.8304 0.4382
vn -0.8304 -0.3440 0.4382
vn 0.3440 -0.8304 0.4382
vn 0.8304 0.3440 0.4382
vn 0.3808 0.9193 0.0995
vn 0.3796 -0.9165 0.1262
vn 0.9165 0.3796 0.1262
vn -0.9165 0.3796 0.1262
vn -0.3796 -0.9165 0.1262
vn 0.9165 -0.3796 0.1262
vn 0.3796 0.9165 0.1262
vn -0.3796 0.9165 0.1262
vn -0.3808 0.9193 0.0995
vn -0.9193 -0.3808 0.0995
vn 0.3808 -0.9193 0.0995
vn 0.9193 0.3808 0.0995
vn -0.9193 0.3808 0.0995
vn -0.3808 -0.9193 0.0995
vn 0.9193 -0.3808 0.0995
vn -0.8490 0.3517 0.3943
vn 0.8490 0.3517 0.3943
vn 0.3517 -0.8490 0.3943
vn -0.8490 -0.3517 0.3943
vn -0.3517 0.8490 0.3943
vn 0.2473 -0.5972 0.7630
vn 0.8490 -0.3517 0.3943
vn -0.3517 -0.8490 0.3943
vn -0.3451 -0.8332 -0.4322
vn 0.8332 -0.3451 -0.4322
vn 0.3451 0.8332 -0.4322
vn -0.3451 0.8332 -0.4322
vn -0.8332 -0.3451 -0.4322
vn 0.3451 -0.8332 -0.4322
vn 0.8332 0.3451 -0.4322
vn -0.8332 0.3451 -0.4322
vn 0.7017 0.2906 -0.6505
vn 0.2906 -0.7017 -0.6505
vn -0.7017 -0.2906 -0.6505
vn -0.2906 0.7017 -0.6505
vn 0.2906 0.7017 -0.6505
vn 0.7017 -0.2906 -0.6505
vn -0.2906 -0.7017 -0.6505
vn -0.7017 0.2906 -0.6505
vn -0.3521 0.8501 0.3915
vn 0.3521 0.8501 0.3915
vn 0.8501 -0.3521 0.3915
vn -0.3521 -0.8501 0.3915
vn -0.8501 0.3521 0.3915
vn 0.8501 0.3521 0.3915
vn 0.3521 -0.8501 0.3915
vn -0.8501 -0.3521 0.3915
vn 0.3517 0.8490 0.3943
vn -0.9890 -0.0911 0.1164
vn 0.2407 -0.5811 0.7774
vn -0.2404 -0.5805 0.7780
vn 0.2473 0.5972 -0.7630
vn -0.2473 -0.5972 0.7630
vn 0.9872 -0.0982 0.1255
vn -0.2473 0.5972 -0.7630
vn 0.9867 -0.1074 0.1218
vn -0.3719 0.8979 -0.2353
vn -0.9890 -0.0139 0.1472
vn 0.3103 0.7492 -0.5852
vn -0.3106 0.7497 -0.5843
vn 0.9874 -0.0186 0.1571
vn -0.9891 -0.0886 0.1173
vn 0.3786 -0.9139 0.1464
vn -0.3544 -0.8556 0.3772
vn 0.3546 -0.8560 0.3762
vn -0.9888 -0.0958 0.1144
vn 0.3718 0.8977 -0.2363
vn -0.3827 0.9239 0.0014
vn 0.9869 -0.1039 0.1233
vn -0.3785 -0.9137 0.1482
vn -0.1417 -0.0587 -0.9882
vn 0.0046 0.0019 1.0000
vn 0.5339 0.2212 -0.8161
vn -0.5339 -0.2212 0.8161
vn -0.5339 0.2212 -0.8161
vn -0.5128 -0.2124 -0.8318
vn 0.2423 0.1004 0.9650
vn -0.3660 -0.9306 -0.0000
vn 0.3660 -0.9306 -0.0000
vn -0.0046 0.0019 1.0000
vn 0.1417 -0.0587 -0.9882
vn 0.3993 0.9168 -0.0000
vn -0.3993 0.9168 -0.0000
vn -0.4337 0.9011 -0.0000
vn 0.4337 0.9011 -0.0000
vn -0.3385 -0.9410 -0.0000
vn 0.3385 -0.9410 -0.0000
vn -0.2423 0.1004 0.9650
vn 0.5128 -0.2124 -0.8318
vn 0.4260 0.9047 -0.0000
vn -0.4260 0.9047 -0.0000
vn -0.5206 0.2157 0.8261
vn 0.2965 -0.9550 -0.0000
vn 0.4994 0.2068 0.8413
vn -0.6860 -0.2842 -0.6698
vn -0.3305 -0.9438 -0.0000
vn 0.3305 -0.9438 -0.0000
vn -0.4994 0.2068 0.8413
vn 0.6860 -0.2842 -0.6698
vn 0.7602 -0.3149 -0.5682
vn 0.4656 0.8850 -0.0000
vn -0.4656 0.8850 -0.0000
vn 0.5206 0.2157 0.8261
vn -0.7602 -0.3149 -0.5682
vn -0.2965 -0.9550 -0.0000
vt 0.936615 0.500000
vt 0.936615 1.000000
vt 0.875000 1.000000
vt 0.875000 0.500000
vt 0.750000 1.000000
vt 0.750000 0.500000
vt 0.625000 1.000000
vt 0.625000 0.500000
vt 0.500000 1.000000
vt 0.500000 0.500000
vt 0.375000 1.000000
vt 0.375000 0.500000
vt 0.250000 1.000000
vt 0.250000 0.500000
vt 0.125000 1.000000
vt 0.125000 0.500000
vt 0.058814 0.500000
vt 0.058814 1.000000
vt 0.000000 1.000000
vt 0.000000 0.500000
vt 1.000000 0.500000
vt 0.093929 0.500000
vt 0.968512 0.500000
vt 0.375000 1.000000
vt 1.000000 1.000000
vt 0.936615 1.000000
vt 0.936615 1.000000
vt 0.058814 1.000000
vt 0.000000 0.000000
vt 0.936615 1.000000
vt 0.058814 1.000000
vt 0.906250 1.000000
vt 0.500000 1.000000
vt 0.750000 1.000000
vt 0.031250 1.000000
vt 0.125000 1.000000
vt 0.250000 1.000000
vt 0.750000 1.000000
vt 0.875000 1.000000
vt 0.040616 1.000000
vt 1.034368 1.000000
vt 0.953556 1.000000
vt -0.034368 1.000000
s 0
f 121/1/1 122/2/1 4/3/1 3/4/1
f 3/4/2 4/3/2 6/5/2 5/6/2
f 5/6/3 6/5/3 8/7/3 7/8/3
f 7/8/4 8/7/4 10/9/4 9/10/4
f 9/10/5 10/9/5 12/11/5 11/12/5
f 11/12/6 12/11/6 14/13/6 13/14/6
f 10/9/7 8/7/7 28/7/7 29/9/7
f 13/14/8 14/13/8 16/15/8 15/16/8
f 135/17/9 136/18/9 2/19/9 1/20/9
f 9/10/10 11/12/10 22/12/10 21/10/10
f 17/21/11 123/21/11 18/21/11 19/21/11 20/21/11 21/21/11 22/21/11 23/21/11 24/21/11 137/21/11
f 135/17/12 1/20/12 17/20/12 137/22/12
f 121/1/13 3/4/13 18/4/13 123/23/13
f 5/6/14 7/8/14 20/8/14 19/6/14
f 11/12/15 13/14/15 23/14/15 22/12/15
f 7/8/16 9/10/16 21/10/16 20/8/16
f 13/14/17 15/16/17 24/16/17 23/14/17
f 3/4/18 5/6/18 19/6/18 18/4/18
f 82/24/5 81/9/5 37/9/5 38/11/5
f 16/15/19 14/13/19 31/13/19 32/15/19
f 6/5/20 4/3/20 25/3/20 27/5/20
f 12/11/21 10/9/21 29/9/21 30/11/21
f 136/18/22 16/15/22 32/15/22 138/18/22
f 122/2/23 2/25/23 26/25/23 124/26/23
f 8/7/24 6/5/24 27/5/24 28/7/24
f 14/13/25 12/11/25 30/11/25 31/13/25
f 98/15/26 97/13/26 47/13/26 48/15/26
f 84/7/3 83/5/3 35/5/3 36/7/3
f 131/27/1 85/25/1 34/25/1 125/27/1
f 145/28/9 87/15/9 40/15/9 139/28/9
f 88/13/6 82/24/6 38/11/6 39/13/6
f 81/9/4 84/7/4 36/7/4 37/9/4
f 83/5/2 86/3/2 33/3/2 35/5/2
f 87/15/8 88/13/8 39/13/8 40/15/8
f 51/5/27 52/7/27 177/7/27 178/5/27
f 100/11/28 99/9/28 45/9/28 46/11/28
f 102/7/29 101/5/29 43/5/29 44/7/29
f 133/27/30 103/25/30 42/25/30 126/27/30
f 147/28/31 98/15/31 48/15/31 140/28/31
f 97/13/32 100/11/32 46/11/32 47/13/32
f 99/9/33 102/7/33 44/7/33 45/9/33
f 101/5/34 104/3/34 41/3/34 43/5/34
f 56/15/35 55/13/35 63/13/35 64/15/35
f 45/9/4 44/7/4 52/7/4 53/9/4
f 47/29/8 55/29/8 56/15/8 48/15/8
f 46/11/5 45/9/5 53/9/5 54/11/5
f 43/5/1 51/5/1 178/5/1 174/5/1
f 126/27/1 42/25/1 50/25/1 127/27/1
f 140/28/9 48/15/9 56/15/9 141/28/9
f 114/13/36 113/24/36 70/11/36 71/13/36
f 54/11/37 53/9/37 61/9/37 62/11/37
f 52/7/38 51/5/38 59/5/38 60/7/38
f 127/27/39 50/25/39 58/25/39 128/30/39
f 141/28/40 56/15/40 64/15/40 142/31/40
f 55/13/41 54/11/41 62/11/41 63/13/41
f 53/9/42 52/7/42 60/7/42 61/9/42
f 51/5/43 49/3/43 57/3/43 59/5/43
f 129/2/44 66/25/44 74/25/44 130/32/44
f 116/33/45 115/7/45 68/7/45 69/9/45
f 118/34/46 117/3/46 65/3/46 67/5/46
f 119/15/47 114/13/47 71/13/47 72/15/47
f 113/24/48 116/33/48 69/9/48 70/11/48
f 115/7/49 118/34/49 67/5/49 68/7/49
f 134/26/50 120/25/50 66/25/50 129/2/50
f 148/31/51 119/15/51 72/15/51 143/28/51
f 73/3/11 130/3/11 74/3/11 144/3/11 80/3/11 79/3/11 78/3/11 77/3/11 76/3/11 75/3/11
f 143/28/52 72/15/52 80/15/52 144/35/52
f 71/13/53 70/11/53 78/11/53 79/13/53
f 69/9/54 68/7/54 76/7/54 77/9/54
f 67/5/55 65/3/55 73/3/55 75/5/55
f 72/15/56 71/13/56 79/13/56 80/15/56
f 70/11/57 69/9/57 77/9/57 78/11/57
f 68/7/58 67/5/58 75/5/58 76/7/58
f 96/36/59 92/37/59 88/13/59 87/15/59
f 94/38/60 91/39/60 86/3/60 83/5/60
f 93/9/61 90/7/61 84/7/61 81/9/61
f 92/37/62 89/11/62 82/24/62 88/13/62
f 146/40/63 96/36/63 87/15/63 145/28/63
f 145/28/64 85/19/64 150/19/64 151/28/64
f 90/7/65 94/38/65 83/5/65 84/7/65
f 89/11/66 93/9/66 81/9/66 82/24/66
f 30/11/67 29/9/67 93/9/67 89/11/67
f 28/7/68 27/5/68 94/38/68 90/7/68
f 124/26/69 26/25/69 95/41/69 132/42/69
f 138/18/70 32/15/70 96/36/70 146/40/70
f 31/13/71 30/11/71 89/11/71 92/37/71
f 29/9/72 28/7/72 90/7/72 93/9/72
f 27/5/73 25/3/73 91/39/73 94/38/73
f 32/15/74 31/13/74 92/37/74 96/36/74
f 35/5/75 33/3/75 104/3/75 101/5/75
f 37/9/76 36/7/76 102/7/76 99/9/76
f 39/13/77 38/11/77 100/11/77 97/13/77
f 139/28/78 40/15/78 98/15/78 147/28/78
f 125/27/79 34/25/79 103/25/79 133/27/79
f 36/7/80 35/5/80 101/5/80 102/7/80
f 38/11/81 37/9/81 99/9/81 100/11/81
f 40/15/82 39/13/82 97/13/82 98/15/82
f 41/3/2 49/3/2 51/5/2 43/5/2
f 105/5/11 106/3/11 110/3/11 109/5/11
f 107/15/11 108/13/11 112/13/11 111/15/11
f 142/31/83 64/15/83 119/15/83 148/31/83
f 128/30/84 58/25/84 120/25/84 134/26/84
f 60/7/85 59/5/85 118/34/85 115/7/85
f 62/11/86 61/9/86 116/33/86 113/24/86
f 64/15/87 63/13/87 114/13/87 119/15/87
f 59/5/88 57/3/88 117/3/88 118/34/88
f 61/9/89 60/7/89 115/7/89 116/33/89
f 63/13/90 62/11/90 113/24/90 114/13/90
f 57/3/84 128/30/84 134/26/84 117/3/84
f 33/3/79 125/27/79 133/27/79 104/3/79
f 25/3/69 124/26/69 132/42/69 91/39/69
f 91/39/91 132/42/91 131/27/91 86/3/91
f 117/3/50 134/26/50 129/2/50 65/3/50
f 65/3/44 129/2/44 130/32/44 73/3/44
f 49/3/39 127/27/39 128/30/39 57/3/39
f 41/3/1 126/27/1 127/27/1 49/3/1
f 104/3/30 133/27/30 126/27/30 41/3/30
f 86/3/1 131/27/1 125/27/1 33/3/1
f 4/3/23 122/2/23 124/26/23 25/3/23
f 1/21/13 121/1/13 123/23/13 17/21/13
f 1/21/1 2/25/1 122/2/1 121/1/1
f 58/19/83 142/31/83 148/31/83 120/19/83
f 34/19/78 139/28/78 147/28/78 103/19/78
f 26/19/70 138/18/70 146/40/70 95/43/70
f 146/40/92 145/28/92 151/28/92 152/40/92
f 66/19/52 143/28/52 144/35/52 74/19/52
f 120/19/51 148/31/51 143/28/51 66/19/51
f 50/19/40 141/28/40 142/31/40 58/19/40
f 42/19/9 140/28/9 141/28/9 50/19/9
f 103/19/31 147/28/31 140/28/31 42/19/31
f 85/19/9 145/28/9 139/28/9 34/19/9
f 2/19/22 136/18/22 138/18/22 26/19/22
f 15/16/12 135/17/12 137/22/12 24/16/12
f 15/16/9 16/15/9 136/18/9 135/17/9
f 151/28/93 150/19/93 156/19/93 157/28/93
f 150/25/94 153/27/94 159/27/94 156/25/94
f 132/42/95 95/41/95 149/41/95 154/42/95
f 85/25/96 131/27/96 153/27/96 150/25/96
f 131/27/97 132/42/97 154/42/97 153/27/97
f 95/43/98 146/40/98 152/40/98 149/43/98
f 159/27/99 160/42/99 166/42/99 165/27/99
f 155/43/100 158/40/100 164/40/100 161/43/100
f 152/40/101 151/28/101 157/28/101 158/40/101
f 154/42/102 149/41/102 155/41/102 160/42/102
f 149/43/103 152/40/103 158/40/103 155/43/103
f 153/27/104 154/42/104 160/42/104 159/27/104
f 164/40/105 163/28/105 169/28/105 170/40/105
f 163/28/106 162/19/106 168/19/106 169/28/106
f 156/25/107 159/27/107 165/27/107 162/25/107
f 157/28/108 156/19/108 162/19/108 163/28/108
f 158/40/109 157/28/109 163/28/109 164/40/109
f 160/42/110 155/41/110 161/41/110 166/42/110
f 172/42/11 167/41/11 168/25/11 171/27/11
f 167/43/11 170/40/11 169/28/11 168/19/11
f 166/42/1 161/41/1 167/41/1 172/42/1
f 161/43/111 164/40/111 170/40/111 167/43/111
f 165/27/112 166/42/112 172/42/112 171/27/112
f 162/25/113 165/27/113 171/27/113 168/25/113
f 175/13/114 176/11/114 184/11/114 183/13/114
f 180/11/115 179/13/115 187/13/115 188/11/115
f 47/13/116 46/11/116 176/11/116 175/13/116
f 55/29/9 47/29/9 175/29/9 179/29/9
f 54/11/117 55/13/117 179/13/117 180/11/117
f 52/7/5 44/7/5 173/7/5 177/7/5
f 46/11/4 54/11/4 180/11/4 176/11/4
f 44/7/118 43/5/118 174/5/118 173/7/118
f 183/13/119 184/11/119 192/11/119 191/13/119
f 188/11/120 187/13/120 195/13/120 196/11/120
f 177/7/121 173/7/121 181/7/121 185/7/121
f 176/11/122 180/11/122 188/11/122 184/11/122
f 178/5/123 177/7/123 185/7/123 186/5/123
f 173/7/124 174/5/124 182/5/124 181/7/124
f 174/5/125 178/5/125 186/5/125 182/5/125
f 179/29/126 175/29/126 183/29/126 187/29/126
f 195/29/127 191/29/127 199/29/127 203/29/127
f 190/5/128 194/5/128 202/5/128 198/5/128
f 185/7/129 181/7/129 189/7/129 193/7/129
f 184/11/130 188/11/130 196/11/130 192/11/130
f 186/5/131 185/7/131 193/7/131 194/5/131
f 181/7/132 182/5/132 190/5/132 189/7/132
f 182/5/133 186/5/133 194/5/133 190/5/133
f 187/29/134 183/29/134 191/29/134 195/29/134
f 202/5/135 201/7/135 209/7/135 210/5/135
f 200/11/136 204/11/136 212/11/136 208/11/136
f 196/11/137 195/13/137 203/13/137 204/11/137
f 191/13/138 192/11/138 200/11/138 199/13/138
f 193/7/139 189/7/139 197/7/139 201/7/139
f 192/11/140 196/11/140 204/11/140 200/11/140
f 194/5/141 193/7/141 201/7/141 202/5/141
f 189/7/142 190/5/142 198/5/142 197/7/142
f 207/13/11 208/11/11 212/11/11 211/13/11
f 205/7/11 206/5/11 210/5/11 209/7/11
f 197/7/143 198/5/143 206/5/143 205/7/143
f 198/5/144 202/5/144 210/5/144 206/5/144
f 203/29/145 199/29/145 207/29/145 211/29/145
f 204/11/146 203/13/146 211/13/146 212/11/146
f 199/13/147 200/11/147 208/11/147 207/13/147
f 201/7/148 197/7/148 205/7/148 209/7/148
