# Blender 5.0.1
# www.blender.org
mtllib rocks.mtl
o Cube
v 28.376499 4.785549 -71.346954
v 29.795189 3.765876 -69.583435
v 21.230175 3.204627 -60.443676
v 30.527069 7.707375 -71.091042
v 32.175632 6.659826 -69.116089
v 34.476044 8.845752 -65.684853
v 24.947844 8.070723 -56.435562
v 26.753759 8.712503 -55.955864
v 19.817724 4.317468 -61.237282
v 21.495317 10.303862 -58.495335
v 20.704994 8.798384 -71.126678
v 20.746088 3.655664 -68.347481
v 19.128113 4.875461 -63.231361
v 21.185301 8.798384 -71.522835
v 22.742754 9.215162 -72.391670
v 24.764296 5.319972 -71.945381
v 21.056723 4.474998 -69.929291
v 20.799049 8.236481 -71.144661
v 28.584330 1.239438 -64.677124
v 28.831066 1.106061 -62.514526
v 22.992411 1.836464 -61.675018
v 22.769737 2.046020 -65.539078
v 20.643833 9.051535 -71.051125
v 22.843946 9.718212 -72.390953
v 21.567598 9.045022 -71.787315
v 21.452896 9.005663 -71.720253
v 20.463486 15.076376 -62.609749
v 20.999672 14.953468 -61.148613
v 18.783031 12.525649 -66.345947
v 19.255756 12.356559 -67.947319
v 20.399168 15.076957 -62.780952
v 20.417826 15.092397 -62.780281
v 27.339844 13.009621 -57.150528
v 21.421162 14.222408 -59.817833
v 21.256226 14.758831 -60.410488
v 21.363735 14.917185 -60.548054
v 30.134371 14.053241 -58.463364
v 28.778189 14.125156 -57.956627
v 30.631926 3.043256 -60.930828
v 33.198574 6.370711 -61.437473
v 31.035759 8.385809 -57.533379
v 30.084778 7.635420 -56.997520
v 29.708469 12.080312 -71.358360
v 24.733147 12.545878 -72.174225
v 24.136356 16.148102 -68.485191
v 23.536234 15.285182 -69.565010
v 33.742813 12.553013 -65.963104
v 27.605045 15.417749 -59.570377
v 28.263071 15.096436 -59.081528
v 30.188251 14.168414 -58.648216
v 26.052010 16.262297 -67.857704
v 31.171482 13.823549 -69.110802
vn -0.6102 0.7487 -0.2592
vn -0.6342 -0.0816 -0.7689
vn 0.7912 0.1113 -0.6014
vn -0.4661 0.0950 -0.8796
vn 0.6006 -0.3805 -0.7032
vn -0.1305 -0.9904 -0.0462
vn -0.5917 -0.1927 0.7828
vn -0.6244 0.7443 0.2371
vn -0.5693 0.7243 0.3889
vn -0.9523 -0.1509 -0.2652
vn -0.6164 -0.7874 -0.0072
vn 0.0283 -0.6483 0.7608
vn -0.0531 -0.8824 -0.4675
vn -0.3999 -0.3065 -0.8638
vn -0.6332 0.0801 -0.7698
vn 0.2523 0.7866 0.5636
vn -0.3418 0.2947 0.8924
vn -0.9313 0.1006 0.3502
vn 0.6765 -0.4309 0.5972
vn 0.1775 0.7183 -0.6727
vn 0.3521 0.2058 0.9131
vn 0.8972 0.2067 0.3903
vn 0.7760 -0.6179 -0.1266
vn -0.5611 0.4291 -0.7079
vn 0.1590 -0.0306 -0.9868
vn 0.4322 0.9017 0.0109
vn -0.1644 0.7081 0.6867
vn -0.0979 0.9881 0.1190
vt 0.795287 0.545768
vt 0.804350 0.511422
vt 0.570326 0.196648
vt 0.570523 0.163786
vt 0.871346 0.661436
vt 0.870896 0.661399
vt 0.487964 0.264804
vt 0.500000 0.263203
vt 0.500000 0.274391
vt 0.617057 0.513085
vt 0.572350 0.593550
vt 0.498750 0.603461
vt 0.454879 0.514504
vt 0.479140 0.458589
vt 0.565347 0.442603
vt 0.504974 0.282848
vt 0.517381 0.308560
vt 0.507875 0.306746
vt 0.393989 0.479053
vt 0.418572 0.417653
vt 0.297540 0.455516
vt 0.309926 0.607562
vt 0.302485 0.662006
vt 0.289382 0.383229
vt 0.529426 0.301730
vt 0.401912 0.085032
vt 0.362713 0.103619
vt 0.480708 0.754615
vt 0.870423 0.665220
vt 0.858254 0.710694
vt 0.863966 0.698080
vt 0.862300 0.715315
vt 0.505727 0.261476
vt 0.397487 0.253131
vt 0.380584 0.247473
vt 0.419211 0.113952
vt 0.475116 0.800622
vt 0.497464 0.865548
vt 0.358509 0.697306
vt 0.432889 0.343987
vt 0.504211 0.280434
vt 0.686846 0.750442
vt 0.610138 0.820676
vt 0.642102 0.761343
vt 0.643402 0.756555
vt 0.837919 0.696111
vt 0.582093 0.854488
vt 0.445378 0.689945
vt 0.496247 0.775787
vt 0.570346 0.342283
vt 0.757076 0.559158
vt 0.686632 0.750656
vt 0.725159 0.723533
vt 0.609343 0.821472
s 0
usemtl Material
f 45/1/1 46/2/1 30/3/1 29/4/1 31/5/1 32/6/1
f 18/7/2 11/8/2 14/9/2
f 52/10/3 47/11/3 6/12/3 5/13/3 4/14/3 43/15/3
f 25/16/4 24/17/4 15/18/4
f 5/13/5 2/19/5 1/20/5 4/14/5
f 22/21/6 19/22/6 20/23/6 21/24/6
f 10/25/7 9/26/7 3/27/7 7/28/7
f 32/6/8 31/5/8 27/29/8
f 36/30/9 28/31/9 35/32/9
f 30/3/10 23/33/10 11/8/10 18/7/10 17/34/10 12/35/10 13/36/10 29/4/10
f 9/26/11 13/36/11 12/35/11 22/21/11 21/24/11 3/27/11
f 42/37/12 8/38/12 7/28/12 3/27/12 21/24/12 20/23/12 39/39/12
f 17/34/13 16/40/13 1/20/13 2/19/13 19/22/13 22/21/13 12/35/13
f 14/9/14 26/41/14 25/16/14 15/18/14 16/40/14 17/34/14 18/7/14
f 11/8/15 23/33/15 26/41/15 14/9/15
f 49/42/16 38/43/16 37/44/16 50/45/16
f 34/46/17 10/25/17 7/28/17 8/38/17 33/47/17
f 31/5/18 29/4/18 13/36/18 9/26/18 10/25/18 34/46/18 35/32/18 28/31/18 27/29/18
f 40/48/19 41/49/19 42/37/19 39/39/19
f 52/10/20 43/15/20 44/50/20 46/2/20 45/1/20 51/51/20
f 33/47/21 8/38/21 42/37/21 41/49/21 37/44/21 38/43/21
f 47/11/22 50/45/22 37/44/22 41/49/22 40/48/22 6/12/22
f 6/12/23 40/48/23 39/39/23 20/23/23 19/22/23 2/19/23 5/13/23
f 30/3/24 46/2/24 44/50/24 24/17/24 25/16/24 26/41/24 23/33/24
f 16/40/25 15/18/25 24/17/25 44/50/25 43/15/25 4/14/25 1/20/25
f 49/52/26 50/45/26 47/11/26 52/10/26 51/51/26 48/53/26
f 36/30/27 35/32/27 34/46/27 33/47/27 38/54/27 49/52/27 48/53/27
f 45/1/28 32/6/28 27/29/28 28/31/28 36/30/28 48/53/28 51/51/28
o Cube.001
v -5.974437 21.034866 -58.660725
v -2.741648 23.030563 -50.102478
v -5.590210 19.978045 -54.426708
v 17.317194 22.486547 -47.301498
v 0.698691 18.038620 -46.544617
v 20.813528 12.696703 -47.086864
v -4.813288 10.163019 -62.498791
v -3.938740 6.875525 -54.772465
v 2.589664 6.787445 -46.220905
v 15.704749 5.661612 -46.656624
v -3.167711 5.898272 -53.947952
v 4.367703 3.052226 -66.785980
v 5.914503 2.871799 -67.110085
v 22.247791 10.422041 -50.224514
v 20.002151 4.358901 -52.144325
v 18.247578 2.723411 -62.309349
v 20.130562 10.892656 -69.318420
v 17.060431 29.624191 -59.207546
v 22.646122 16.145727 -62.868984
v 20.517054 11.973600 -69.092560
v 16.347809 30.003819 -56.258224
v 16.625017 25.453854 -49.250504
v 12.325253 30.094728 -52.693184
v 3.973271 29.063543 -53.069317
v -0.327312 26.914932 -63.576809
v -4.641694 23.629925 -59.538391
v -1.900377 24.868864 -51.154213
v 5.772727 22.254599 -71.464264
v 11.209535 26.311153 -69.638496
v 11.214013 27.455462 -68.696060
v 2.600583 26.737568 -66.880653
v 5.166147 14.944163 -72.499222
v -0.947233 8.124686 -67.283463
v 9.104265 9.522396 -72.190086
v 6.221391 5.414244 -69.396942
v 3.021018 4.587767 -67.692085
vn -0.2286 -0.6356 -0.7374
vn -0.5662 0.8218 0.0637
vn 0.4398 0.7611 0.4768
vn -0.7901 -0.1155 0.6020
vn -0.9903 -0.1264 0.0583
vn 0.6546 -0.4376 0.6165
vn 0.0362 0.0348 0.9987
vn -0.0786 -0.9820 0.1716
vn 0.9429 -0.3137 -0.1123
vn -0.2108 0.6219 -0.7542
vn 0.9250 0.3343 0.1805
vn -0.8420 0.5005 0.2013
vn -0.1033 0.5291 0.8422
vn -0.1142 0.9815 -0.1539
vn 0.7144 0.4432 -0.5415
vn 0.2367 0.1169 -0.9645
vn -0.7353 0.1544 -0.6599
vn 0.2648 -0.6623 -0.7008
vn -0.6607 -0.7148 -0.2293
vn -0.3782 -0.3242 -0.8671
vt 0.282712 0.411223
vt 0.302229 0.449878
vt 0.217924 0.518937
vt 0.216164 0.493062
vt 0.586225 0.094098
vt 0.633827 0.262611
vt 0.606130 0.219915
vt 0.570841 0.151455
vt 0.655306 0.580023
vt 0.651404 0.507120
vt 0.600973 0.665379
vt 0.256920 0.777229
vt 0.517117 0.445564
vt 0.566838 0.071189
vt 0.533701 0.093378
vt 0.403486 0.088650
vt 0.363445 0.146085
vt 0.544216 0.137461
vt 0.436432 0.170801
vt 0.359151 0.690962
vt 0.435902 0.705142
vt 0.454900 0.735996
vt 0.330642 0.744227
vt 0.567319 0.704757
vt 0.334183 0.580338
vt 0.439245 0.489901
vt 0.451645 0.495488
vt 0.500080 0.577750
vt 0.611224 0.413846
vt 0.562462 0.341223
vt 0.606131 0.277272
vt 0.624434 0.423226
vt 0.653173 0.565184
vt 0.487684 0.332440
vt 0.430408 0.372314
vt 0.410136 0.239404
s 0
f 88/55/29 87/56/29 65/57/29 64/58/29
f 79/59/30 76/60/30 77/61/30 78/62/30
f 73/63/31 75/64/31 74/65/31
f 61/66/32 57/67/32 54/68/32 55/69/32 60/70/32 63/71/32
f 53/72/33 59/73/33 60/70/33 55/69/33
f 67/74/34 66/75/34 58/76/34 62/77/34
f 58/76/35 56/78/35 57/67/35 61/66/35 62/77/35
f 65/57/36 68/79/36 67/74/36 62/77/36 61/66/36 63/71/36 64/58/36
f 67/74/37 68/79/37 69/80/37 72/81/37 71/82/37 66/75/37
f 81/83/38 80/84/38 83/85/38 82/86/38
f 58/76/39 66/75/39 71/82/39 70/87/39 73/63/39 74/65/39 56/78/39
f 55/69/40 54/68/40 79/59/40 78/62/40 53/72/40
f 57/67/41 56/78/41 74/65/41 75/64/41 76/60/41 79/59/41 54/68/41
f 73/63/42 70/87/42 82/86/42 83/85/42 77/61/42 76/60/42 75/64/42
f 70/87/43 71/82/43 72/81/43 81/83/43 82/86/43
f 84/88/44 80/84/44 81/83/44 72/81/44 69/80/44 86/89/44
f 85/90/45 59/73/45 53/72/45 78/62/45 77/61/45 83/85/45 80/84/45 84/88/45
f 69/80/46 68/79/46 65/57/46 87/56/46 86/89/46
f 64/58/47 63/71/47 60/70/47 59/73/47 85/90/47 88/55/47
f 87/56/48 88/55/48 85/90/48 84/88/48 86/89/48
o Cube.002
v 5.376943 3.533964 -47.505569
v 0.240280 3.533965 -42.368904
v 3.405732 4.101026 -46.938416
v 7.448339 3.186960 -47.852310
v 0.807329 4.101014 -44.340157
v 2.721594 2.948107 -44.995132
v 8.004936 23.696690 -33.833992
v 14.549388 20.205456 -30.535011
v 1.605059 19.325758 -34.570259
v 7.902788 23.062611 -42.370003
v 3.102573 4.228603 -46.810852
v 5.163127 4.415005 -48.146374
v 1.323955 4.617640 -45.567753
v 3.373218 4.196008 -46.995640
v -0.746183 5.789958 -44.002743
v 0.162343 5.171799 -44.706608
v -0.773500 17.220417 -42.107460
v 5.270898 21.079193 -45.481140
v -0.309624 4.290306 -42.552357
v 0.114252 3.407937 -41.616173
v 0.564871 2.650090 -40.379803
v -0.729501 12.799974 -33.261677
v -0.901435 5.702658 -43.618027
v -2.437070 12.850519 -41.722172
v -1.031195 6.075724 -43.766853
v 7.290848 4.470837 -48.879860
v 8.500603 15.060250 -48.610874
v 6.810033 4.973130 -49.146603
v 16.950050 14.632109 -44.208347
v 1.064358 7.757304 -31.050713
v 2.155617 3.206470 -31.690569
v 14.615969 17.241962 -29.565018
v 12.009544 10.710734 -28.345354
v 2.212213 2.100255 -42.847206
v 8.782847 3.115946 -47.923489
v 4.978186 2.438573 -45.972878
v 7.391161 2.848666 -47.426105
v 2.246339 2.103025 -42.901321
v 4.234169 2.329471 -45.332619
v 1.252462 2.100074 -40.464096
v 0.973325 2.171374 -38.980473
v 8.958412 3.151212 -47.969086
v 2.140747 3.067789 -31.950420
v 2.267117 3.120104 -31.684872
v 12.303692 5.591353 -29.248589
v 17.271706 17.755161 -41.460472
v 17.178505 15.565590 -43.312557
v 17.107159 13.762472 -44.097252
v 17.363497 18.444118 -32.321526
v 17.312361 16.924599 -31.751537
v 16.918007 6.303480 -32.826275
v 16.799086 5.271027 -43.969154
vn 0.6193 -0.1018 0.7785
vn -0.1896 -0.1812 0.9650
vn 0.4607 -0.0301 -0.8871
vn -0.5420 -0.6422 -0.5420
vn -0.5105 -0.5652 -0.6480
vn -0.7600 -0.6082 -0.2291
vn -0.5588 0.8275 -0.0548
vn -0.7920 -0.4431 -0.4201
vn -0.6481 -0.5651 -0.5106
vn -0.3777 -0.5998 -0.7054
vn -0.5475 0.1356 -0.8258
vn -0.9126 0.3639 0.1864
vn -0.7097 -0.5862 -0.3907
vn 0.9993 -0.0364 -0.0073
vn -0.2366 -0.6195 -0.7485
vn -0.5711 -0.7102 0.4117
vn 0.4968 0.8650 -0.0702
vn -0.3027 0.2903 0.9078
vn 0.9245 0.1208 -0.3617
vn -0.9484 -0.2541 0.1899
vn -0.6286 -0.7735 -0.0811
vn -0.4223 -0.8033 -0.4201
vn -0.2338 -0.7579 -0.6091
vn -0.3960 -0.7084 -0.5842
vn -0.0747 -0.7762 -0.6261
vn -0.0747 -0.6287 -0.7741
vn -0.5861 -0.7068 -0.3961
vn -0.6135 -0.7522 -0.2402
vn 0.2180 -0.9720 0.0877
vn 0.6270 0.2550 0.7361
vn 0.3987 0.5823 -0.7085
vt 0.399592 0.696664
vt 0.576376 0.716135
vt 0.591093 0.750847
vt 0.483429 0.767407
vt 0.365560 0.745488
vt 0.430013 0.691744
vt 0.147597 0.716477
vt 0.149544 0.715968
vt 0.400526 0.516520
vt 0.375685 0.366062
vt 0.394573 0.343750
vt 0.401264 0.337613
vt 0.546099 0.393138
vt 0.537555 0.524122
vt 0.524689 0.526677
vt 0.151070 0.500000
vt 0.156250 0.500000
vt 0.156250 0.531250
vt 0.125000 0.531250
vt 0.125000 0.510273
vt 0.375000 0.276070
vt 0.376551 0.281250
vt 0.375000 0.281250
vt 0.375000 0.176144
vt 0.386847 0.187500
vt 0.375000 0.187500
vt 0.672794 0.422835
vt 0.570242 0.253639
vt 0.631032 0.354098
vt 0.751012 0.682862
vt 0.765887 0.571841
vt 0.406250 0.198662
vt 0.411134 0.200089
vt 0.406250 0.204273
vt 0.375000 0.218750
vt 0.392481 0.218750
vt 0.375000 0.239727
vt 0.388802 0.312500
vt 0.375000 0.312500
vt 0.507290 0.198969
vt 0.639219 0.389259
vt 0.518516 0.169758
vt 0.551733 0.536022
vt 0.586213 0.558780
vt 0.600812 0.705666
vt 0.375000 0.343750
vt 0.148403 0.712410
vt 0.696292 0.502246
vt 0.639340 0.732697
vt 0.135234 0.593750
vt 0.142263 0.613582
vt 0.145715 0.593750
vt 0.178487 0.531250
vt 0.156250 0.561792
vt 0.187500 0.500000
vt 0.218750 0.500000
vt 0.218750 0.506416
vt 0.187500 0.523523
vt 0.238397 0.500000
vt 0.375000 0.363397
vt 0.155888 0.562500
vt 0.125000 0.562500
vt 0.125000 0.573856
s 0
f 139/91/49 138/92/49 120/93/49 121/94/49 133/95/49
f 133/95/50 121/94/50 118/96/50 119/97/50 132/98/50
f 140/99/51 130/100/51 114/101/51 116/102/51 115/103/51 117/104/51 136/105/51
f 99/106/52 91/107/52 94/108/52 93/109/52 101/110/52
f 99/111/53 102/112/53 91/113/53
f 108/114/54 107/115/54 90/116/54
f 106/117/55 105/118/55 97/119/55 95/120/55 98/121/55
f 111/122/56 113/123/56 103/124/56
f 93/125/57 104/126/57 101/127/57
f 91/113/58 102/112/58 100/128/58 89/129/58
f 116/102/59 100/128/59 102/112/59 99/106/59 101/127/59 104/126/59 103/124/59 113/123/59 112/130/59 105/118/59 106/131/59 115/103/59
f 105/118/60 112/130/60 110/132/60 97/119/60
f 90/116/61 107/115/61 111/122/61 103/124/61 104/126/61 93/125/61
f 136/105/62 135/133/62 134/134/62 137/135/62 138/92/62 139/91/62 140/99/62
f 89/129/63 100/128/63 116/102/63 114/101/63 92/136/63
f 131/137/64 132/98/64 119/97/64
f 134/134/65 98/138/65 95/120/65 96/139/65 137/135/65
f 118/96/66 121/94/66 120/93/66 96/139/66 95/120/66 97/119/66 110/132/66
f 135/133/67 136/105/67 117/104/67
f 111/122/68 107/115/68 108/114/68 109/140/68 129/141/68 131/137/68 119/97/68 118/96/68 110/132/68 112/130/68 113/123/68
f 109/140/69 128/142/69 129/141/69
f 94/108/70 127/143/70 126/144/70
f 89/145/71 92/146/71 125/147/71 124/148/71
f 91/107/72 89/145/72 124/148/72 127/143/72 94/108/72
f 92/146/73 123/149/73 125/147/73
f 92/136/74 114/101/74 130/100/74 123/150/74
f 93/109/75 94/108/75 126/144/75 122/151/75 90/152/75
f 90/152/76 122/151/76 128/142/76 109/140/76 108/153/76
f 127/143/77 124/148/77 125/147/77 123/150/77 130/100/77 140/99/77 139/91/77 133/95/77 132/98/77 131/137/77 129/141/77 128/142/77 122/151/77 126/144/77
f 120/93/78 138/92/78 137/135/78 96/139/78
f 117/104/79 115/103/79 106/131/79 98/138/79 134/134/79 135/133/79
o Cube.003
v 24.991524 2.653592 -46.682064
v 26.319433 3.870773 -44.973267
v 25.054523 3.252812 -54.795277
v 27.894293 1.403602 -52.468857
v 26.290064 5.842186 -57.778008
v 27.545275 5.730494 -57.580341
v 33.333187 5.849996 -46.782261
v 32.337814 2.631073 -53.679348
v 32.379169 3.108249 -54.238838
v 33.796207 8.408178 -46.187279
v 20.936216 13.502172 -52.041916
v 25.130325 9.944097 -57.465500
v 21.470770 14.995785 -51.523926
v 31.500130 10.496625 -44.789768
v 29.806152 17.498152 -46.814728
v 21.573185 15.111622 -51.142601
v 28.462410 6.217231 -57.365540
v 32.740192 5.665923 -55.161961
v 26.780870 14.678534 -55.789955
v 26.033083 11.641256 -57.103241
v 34.350937 12.156857 -47.159081
v 29.875212 17.502697 -46.837242
v 29.872540 17.494421 -46.820900
v 32.358391 13.754639 -45.914322
v 33.207329 16.749430 -51.620922
v 34.528645 14.960807 -51.419582
v 21.260143 4.940848 -47.920952
v 20.689766 5.323348 -48.529518
v 25.755516 5.675031 -44.250008
v 20.503689 11.056164 -50.411564
v 27.227940 17.206635 -46.437180
v 27.361837 8.935279 -43.838238
v 22.623434 15.587955 -49.937073
v 21.612251 14.923887 -50.613033
vn -0.5184 -0.4528 0.7254
vn 0.3899 -0.3608 -0.8472
vn 0.0341 -0.7617 -0.6471
vn 0.3379 -0.8706 0.3576
vn 0.7125 0.5721 0.4062
vn 0.0925 0.8821 0.4618
vn -0.6544 0.6962 0.2951
vn 0.1649 0.1212 -0.9788
vn -0.5456 0.4422 -0.7120
vn 0.3109 -0.2683 0.9118
vn 0.4686 0.2509 -0.8470
vn 0.1050 0.2997 0.9483
vn -0.1451 0.9569 -0.2517
vn 0.5928 0.1188 0.7965
vn 0.9844 -0.1628 -0.0661
vn -0.9451 0.2797 0.1689
vn -0.8338 -0.1964 -0.5159
vn -0.6383 0.2213 0.7373
vn -0.5050 -0.8605 -0.0675
vt 0.550302 0.460325
vt 0.581961 0.465823
vt 0.605477 0.513518
vt 0.565010 0.565754
vt 0.564853 0.641934
vt 0.576544 0.712598
vt 0.617676 0.388886
vt 0.566207 0.338843
vt 0.628626 0.699835
vt 0.657717 0.544335
vt 0.626767 0.374160
vt 0.576757 0.769961
vt 0.548612 0.297439
vt 0.306034 0.429551
vt 0.296564 0.448359
vt 0.224000 0.555978
vt 0.223976 0.556271
vt 0.172802 0.633204
vt 0.190359 0.588893
vt 0.225125 0.555903
vt 0.379955 0.618749
vt 0.377741 0.629253
vt 0.356714 0.608268
vt 0.415985 0.734491
vt 0.474966 0.758684
vt 0.321537 0.684361
vt 0.380622 0.636697
vt 0.410253 0.647918
vt 0.492572 0.404974
vt 0.464157 0.319628
vt 0.497618 0.279739
vt 0.268871 0.548505
vt 0.454542 0.618532
vt 0.559982 0.583386
s 0
f 169/154/80 167/157/80 141/156/80 142/155/80
f 157/158/81 158/161/81 149/160/81 146/159/81
f 143/162/82 145/165/82 146/159/82 149/160/82 148/164/82 144/163/82
f 142/155/83 141/156/83 144/163/83 148/164/83 147/166/83
f 161/167/84 166/172/84 165/171/84 162/170/84 163/169/84 164/168/84
f 163/169/85 162/170/85 155/173/85
f 174/174/86 173/176/86 156/175/86
f 157/158/87 146/159/87 145/165/87 152/178/87 160/177/87
f 159/179/88 160/177/88 152/178/88 151/181/88 153/180/88
f 169/154/89 142/155/89 147/166/89 150/184/89 154/183/89 172/182/89
f 159/179/90 165/171/90 166/172/90 158/161/90 157/158/90 160/177/90
f 172/182/91 154/183/91 164/168/91 163/169/91 155/173/91 171/185/91
f 171/185/92 155/173/92 162/170/92 165/171/92 159/179/92 153/180/92 156/175/92 173/176/92
f 154/183/93 150/184/93 161/167/93 164/168/93
f 147/166/94 148/164/94 149/160/94 158/161/94 166/172/94 161/167/94 150/184/94
f 153/180/95 151/181/95 170/186/95 174/174/95 156/175/95
f 152/178/96 145/165/96 143/162/96 168/187/96 170/186/96 151/181/96
f 167/157/97 169/154/97 172/182/97 171/185/97 173/176/97 174/174/97 170/186/97 168/187/97
f 141/156/98 167/157/98 168/187/98 143/162/98 144/163/98
